<svg width="62" height="55" viewBox="0 0 62 55" fill="none" xmlns="http://www.w3.org/2000/svg">
<path d="M9.49936 26.2558C10.9807 26.2558 12.3158 25.7266 13.3076 24.873L18.737 27.3028C18.7116 27.502 18.6671 27.6955 18.6671 27.9003C18.6671 30.6147 21.1339 32.8226 24.1665 32.8226C27.1991 32.8226 29.6658 30.6147 29.6658 27.9003C29.6658 27.1435 29.456 26.4322 29.1127 25.7892L36.4749 19.1996C37.1933 19.5069 37.9816 19.6947 38.8335 19.6947C41.8661 19.6947 44.3329 17.4868 44.3329 14.7724C44.3329 14.2603 44.2185 13.7766 44.0595 13.3157L50.4553 9.02507C51.3263 9.54859 52.3753 9.85588 53.5006 9.85588C56.5332 9.85588 59 7.64798 59 4.93363C59 2.21928 56.5396 0 53.507 0C50.4744 0 48.0076 2.2079 48.0076 4.92225C48.0076 5.43439 48.1221 5.91808 48.281 6.37901L41.8852 10.6696C41.0142 10.1461 39.9652 9.83881 38.8399 9.83881C35.8073 9.83881 33.3405 12.0467 33.3405 14.7611C33.3405 15.5179 33.5503 16.2292 33.8937 16.8722L26.5251 23.4675C25.8067 23.1602 25.0184 22.9724 24.1665 22.9724C22.6851 22.9724 21.35 23.5016 20.3582 24.3552L14.9288 21.9253C14.9542 21.7262 14.9987 21.5327 14.9987 21.3278C14.9987 18.6135 12.532 16.4056 9.49936 16.4056C6.46677 16.4056 4 18.6135 4 21.3278C4 24.0422 6.46677 26.2558 9.49936 26.2558Z" fill="#7640CC"/>
<path d="M60.1859 51.7692H58.2459V17.5831C58.2459 16.6913 57.4333 15.9677 56.4318 15.9677H49.1692C48.1676 15.9677 47.3551 16.6913 47.3551 17.5831V51.7692H43.7206V27.2921C43.7206 26.4002 42.9081 25.6767 41.9065 25.6767H34.6376C33.6361 25.6767 32.8235 26.4002 32.8235 27.2921V51.7692H29.1891V40.2318C29.1891 39.34 28.3765 38.6164 27.375 38.6164H20.1061C19.1045 38.6164 18.292 39.34 18.292 40.2318V51.7692H14.6575V33.7591C14.6575 32.8673 13.845 32.1437 12.8434 32.1437H5.56822C4.5667 32.1437 3.75414 32.8673 3.75414 33.7591V51.7692H1.81408C0.812557 51.7692 0 52.4928 0 53.3846C0 54.2764 0.812557 55 1.81408 55H60.1859C61.1874 55 62 54.2764 62 53.3846C62 52.4928 61.1937 51.7692 60.1859 51.7692Z" fill="#7640CC"/>
</svg>
