<svg width="55" height="55" viewBox="0 0 55 55" fill="none" xmlns="http://www.w3.org/2000/svg">
<g clip-path="url(#clip0_375_1053)">
<path d="M27.5001 0C23.0567 0 19.3369 3.6136 19.3369 8.05702C19.3369 12.5004 23.0567 16.114 27.5001 16.114C31.9435 16.114 35.5571 12.5004 35.5571 8.05702C35.5571 3.6136 31.9435 0 27.5001 0ZM27.5001 12.8912C24.8369 12.8912 22.6659 10.725 22.6659 8.05702C22.6659 5.38904 24.8369 3.22281 27.5001 3.22281C30.1632 3.22281 32.3343 5.38904 32.3343 8.05702C32.3343 10.725 30.1632 12.8912 27.5001 12.8912Z" fill="#7640CC"/>
<path d="M53.1136 24.4461C52.4864 23.8189 51.4636 23.8189 50.8364 24.4461C50.2092 25.0733 50.2092 26.0961 50.8364 26.7233C51.4443 27.3311 51.782 28.1417 51.782 29.0004C51.782 30.7759 50.3347 32.2233 48.5592 32.2233H48.4772C47.657 23.2013 39.957 16.1092 30.7276 16.1092H27.5H22.6658C21.6768 16.1092 20.5575 16.2105 19.4333 16.4325C17.3009 14.1697 14.382 12.8912 11.2798 12.8912C10.3873 12.8912 9.66842 13.6101 9.66842 14.5026V21.7588C7.7386 23.8189 6.325 26.3035 5.5579 29.0053H4.83421C2.16623 29.0053 0 31.1715 0 33.8395V37.2794C0 39.9425 2.16623 42.1136 4.83421 42.1136C4.83904 42.1184 5.91974 42.1136 6.76886 42.1184C7.86886 44.2702 9.40307 46.1807 11.2702 47.7246C11.2798 49.8811 11.2798 53.3934 11.2798 53.3934C11.2798 54.286 11.9987 55.0048 12.8912 55.0048H19.3368C20.2294 55.0048 21.0544 54.286 21.0544 53.3934V51.7097C21.5899 51.7579 22.1254 51.782 22.6658 51.782H30.7228V53.3934C30.7228 54.286 31.4417 55.0048 32.3342 55.0048H38.886C39.7785 55.0048 40.4974 54.286 40.4974 53.3934L40.5022 48.9114C45.0373 45.9491 47.9561 40.8254 48.4482 35.4557H48.5496C52.1053 35.4557 54.9952 32.5658 54.9952 29.0101C55 27.2829 54.3294 25.6667 53.1136 24.4461ZM12.8768 32.257C11.9842 32.257 11.2461 31.5189 11.2461 30.6311C11.2461 29.7386 11.9842 29.0053 12.8768 29.0053C13.7693 29.0053 14.5026 29.7434 14.5026 30.6311C14.5026 31.5237 13.7645 32.257 12.8768 32.257ZM33.9456 25.7825H21.0544C20.1618 25.7825 19.3368 25.0636 19.3368 24.1711C19.3368 23.2785 20.1667 22.5597 21.0544 22.5597H33.9456C34.8382 22.5597 35.557 23.2785 35.557 24.1711C35.557 25.0636 34.8382 25.7825 33.9456 25.7825Z" fill="#7640CC"/>
</g>
<defs>
<clipPath id="clip0_375_1053">
<rect width="55" height="55" fill="white"/>
</clipPath>
</defs>
</svg>
