<svg width="49" height="55" viewBox="0 0 49 55" fill="none" xmlns="http://www.w3.org/2000/svg">
<path d="M1.19528 55C0.266229 54.5731 -0.00495371 53.8349 6.81964e-05 52.8355C0.0251777 43.4747 0.0151339 34.1089 0.0151339 24.743C0.0151339 23.3469 0.597675 22.7644 2.00883 22.7644C3.96235 22.7644 5.91085 22.7594 7.86437 22.7644C10.8273 22.7694 12.9013 24.8384 12.9064 27.7963C12.9114 35.1534 12.9114 42.5105 12.9064 49.8726C12.9064 52.5342 11.4751 54.317 8.85871 54.9196C8.80849 54.9297 8.76329 54.9698 8.71809 54.995C6.21216 55 3.70121 55 1.19528 55ZM9.6823 47.0202C9.7275 46.1514 9.03447 45.383 8.16568 45.3328C7.30192 45.2826 6.52352 45.9656 6.46326 46.8344C6.403 47.7232 7.11611 48.5117 8.00498 48.5519C8.87377 48.592 9.6371 47.894 9.6823 47.0202Z" fill="#7640CC"/>
<path d="M31.9294 25.9935C32.2056 25.9935 32.4165 25.9935 32.6324 25.9935C36.8056 25.9935 40.9738 25.9834 45.147 25.9985C46.7791 26.0035 48.0898 27.1736 48.3359 28.7806C48.5619 30.2671 47.6379 31.7436 46.1564 32.2658C46.0258 32.311 45.9003 32.3562 45.6643 32.4316C47.4219 32.9739 48.4313 34.0587 48.3359 35.8515C48.2556 37.4484 47.2813 38.4076 45.6693 38.8696C45.8752 38.95 45.9957 38.9952 46.1162 39.0354C47.6278 39.5526 48.5669 41.0491 48.3309 42.5507C48.0748 44.1627 46.7691 45.3027 45.1319 45.3228C44.3083 45.3328 43.4848 45.3228 42.6461 45.3881C42.8018 45.4433 42.9575 45.4935 43.1081 45.5538C44.5042 46.1112 45.3529 47.6178 45.0968 49.0541C44.8156 50.6109 43.5601 51.7508 42.0083 51.7558C36.7102 51.7709 31.4071 51.781 26.109 51.7458C23.9345 51.7307 21.8956 51.0176 19.8617 50.3196C18.6313 49.8977 17.3909 49.491 16.1455 49.0792C16.1455 41.3002 16.1455 33.5514 16.1455 25.8027C16.708 25.6018 17.2754 25.431 17.8128 25.195C19.8467 24.3061 21.3532 22.8046 22.5585 20.9766C24.2057 18.4857 25.1699 15.7036 25.9935 12.8612C26.1692 12.2586 26.3149 11.6509 26.4856 11.0483C26.7216 10.2197 27.3192 9.73256 28.178 9.76771C28.9765 9.79784 29.8051 9.80789 30.5584 10.0389C32.5119 10.6315 33.7724 12.4795 33.8527 14.5385C33.9984 18.2748 33.3254 21.8705 32.1051 25.3858C32.0549 25.5817 31.9997 25.7675 31.9294 25.9935Z" fill="#7640CC"/>
<path d="M30.6337 3.28946C30.6337 3.84186 30.6487 4.3993 30.6286 4.95171C30.5985 5.87071 29.9055 6.54867 29.0166 6.54867C28.1277 6.54867 27.4297 5.86569 27.4146 4.94668C27.3945 3.83684 27.3996 2.73202 27.4146 1.62218C27.4297 0.698153 28.1127 0.0101524 28.9965 0.000108548C29.9105 -0.00993526 30.6035 0.678066 30.6286 1.63223C30.6437 2.17961 30.6337 2.73202 30.6337 3.28946Z" fill="#7640CC"/>
<path d="M17.0896 6.01137C17.18 5.33341 17.4512 4.83122 18.0337 4.53995C18.6263 4.24366 19.254 4.25371 19.7412 4.70568C20.625 5.5142 21.4787 6.35788 22.2873 7.24676C22.8547 7.86445 22.7543 8.81359 22.1718 9.38609C21.5842 9.96361 20.6451 10.0389 20.0274 9.46644C19.1586 8.66796 18.33 7.82428 17.5315 6.95549C17.3055 6.71444 17.2302 6.32775 17.0896 6.01137Z" fill="#7640CC"/>
<path d="M40.9737 6.09672C40.7628 6.45829 40.6071 6.86507 40.3309 7.16638C39.6529 7.9046 38.9348 8.60265 38.2116 9.30069C37.4784 10.0088 36.5193 10.0339 35.8614 9.38104C35.2035 8.72317 35.2186 7.75394 35.9267 7.03079C36.6498 6.28755 37.383 5.55435 38.1313 4.8312C38.6536 4.33403 39.3717 4.22355 39.9743 4.51482C40.5569 4.79102 40.8983 5.37356 40.9737 6.09672Z" fill="#7640CC"/>
</svg>
