<svg width="499" height="524" viewBox="0 0 499 524" fill="none" xmlns="http://www.w3.org/2000/svg">
<path d="M468.207 372.613C429.851 443.7 368.351 502.083 281.158 520.791C265.889 523.846 247.525 523.713 232.998 521.969C206.451 519.668 189.729 503.143 180.835 476.596C176.721 462.622 172.606 448.648 169.157 433.272C161.594 403.923 144.949 384 119.888 372.101C103.598 364.367 86.6426 358.035 70.9404 352.297C7.5438 327.351 -16.354 264.487 12.4878 194.035C23.2105 168.215 38.3579 142.778 54.6807 121.334C90.4979 78.2344 132.425 44.9048 181.051 23.3414C248.938 -9.68447 313.465 -6.52553 372.049 35.0261C428.792 73.9864 472.54 127.384 491.78 200.057C505.143 252.768 499.477 306.747 468.207 372.613Z" fill="#DBEDFF"/>
</svg>
