<svg xmlns="http://www.w3.org/2000/svg" viewBox="0 0 925.25 1550.44"><defs><style>.cls-1{fill:#2e9ed9;}.cls-2{fill:#3fa2db;}.cls-3{fill:#6a7a7e;}.cls-4,.cls-7{fill:#fff;}.cls-5{fill:#17323b;}.cls-6{fill:#e74238;}.cls-7{stroke:#17323b;stroke-miterlimit:10;stroke-width:2.96px;}.cls-8{fill:#738187;}</style></defs><g id="Capa_2" data-name="Capa 2"><g id="Capa_1-2" data-name="Capa 1"><circle class="cls-1" cx="907.21" cy="1532.41" r="18.03"/><circle class="cls-1" cx="907.21" cy="18.03" r="18.03"/><path class="cls-2" d="M907.21,1529.05c-370.77-50.83-656.42-368.81-656.42-753.55S536.44,72.79,907.21,22V15.54c-374.3,50.87-662.78,371.7-662.78,760s288.48,709.09,662.78,760Z"/><polygon class="cls-3" points="542.66 912.34 542.66 619.52 271.33 473.11 0 619.52 0 912.34 271.33 1058.76 542.66 912.34"/><polygon class="cls-4" points="537.81 909.73 537.81 622.13 271.33 478.34 4.85 622.13 4.85 909.73 271.33 1053.52 537.81 909.73"/><polygon class="cls-3" points="522.83 901.64 522.83 630.22 271.33 494.51 19.83 630.22 19.83 901.64 271.33 1037.35 522.83 901.64"/><rect class="cls-5" x="19.83" y="685.33" width="503" height="161.2"/><rect class="cls-4" x="208.63" y="730.67" width="11.64" height="72.34"/><path class="cls-4" d="M264,780c0,10.88-9.35,11.89-11.88,11.89-6.83,0-8.35-6.58-8.35-10.62V753.94H232.08v27.57A24.49,24.49,0,0,0,237.9,798c3.29,3.29,8.35,5.06,13.91,5.06,4.05,0,9.36-1,11.89-4v4h11.64V753.94H263.7v26Z"/><polygon class="cls-4" points="299.84 736.49 288.2 736.49 288.2 753.94 279.6 753.94 279.6 765.57 288.2 765.57 288.2 803.01 299.84 803.01 299.84 765.57 308.44 765.57 308.44 753.94 299.84 753.94 299.84 736.49"/><path class="cls-4" d="M346.34,788.34a13.92,13.92,0,0,1-9.36,3.54c-8.09,0-13.91-5.82-13.91-14.17S328.89,763.8,337,763.8a12.77,12.77,0,0,1,9.36,3.54l1.77,1.52,7.59-7.59-1.77-1.77A26.33,26.33,0,0,0,337,752.93c-14.41-.26-25,10.11-25,24.78a24.63,24.63,0,0,0,25,25,25.84,25.84,0,0,0,17.46-6.58l1.77-1.77-8.1-8.1Z"/><path class="cls-4" d="M398.18,758.24a17,17,0,0,0-12.65-5.06c-4,0-8.35,1-11.38,4.05V730.67H362.51V803h11.64V775.69c0-10.88,8.09-11.89,10.62-11.89,6.83,0,6.83,6.58,6.83,10.63V803h11.64V774.17C403.49,767.85,402,762,398.18,758.24Z"/><circle class="cls-6" cx="336.48" cy="777.97" r="8.35"/><path class="cls-4" d="M189.73,784.8A24.18,24.18,0,0,1,173,791.63c-13.16,0-22.52-10.12-22.52-24s9.36-24,22.26-24a25.17,25.17,0,0,1,16.7,6.83l1.77,1.77,7.59-7.59-1.77-1.77a34.07,34.07,0,0,0-24.29-10.12c-19.22.25-33.38,15.18-33.38,35.16s14.16,34.91,33.38,34.91a32.86,32.86,0,0,0,24.29-10.12l1.77-1.77-7.59-8.1Z"/><polygon class="cls-7" points="271.33 515.07 39.96 640.14 39.96 701.01 502.7 701.01 502.7 640.14 271.33 515.07"/><polygon class="cls-7" points="271.33 1014.53 502.7 889.47 502.7 828.6 39.96 828.6 39.96 889.47 271.33 1014.53"/><rect class="cls-8" x="76.78" y="685.16" width="389.09" height="2.78"/><rect class="cls-8" x="76.78" y="845.14" width="389.09" height="2.78"/><path class="cls-5" d="M251.65,577.59h-7v21.33h-3.13V577.59h-6.92v-2.77h17Z"/><path class="cls-5" d="M256.43,587.16q0-5.83,3.16-9.29a11,11,0,0,1,8.55-3.46,10.43,10.43,0,0,1,8.1,3.38,12.58,12.58,0,0,1,3.06,8.79q0,5.86-3.14,9.31a10.85,10.85,0,0,1-8.4,3.44,10.65,10.65,0,0,1-8.24-3.38A12.51,12.51,0,0,1,256.43,587.16Zm3.27-.25a10.47,10.47,0,0,0,2.23,7,7.27,7.27,0,0,0,5.83,2.64,7.61,7.61,0,0,0,6.06-2.53A10.41,10.41,0,0,0,276,587q0-4.68-2.16-7.21a7.32,7.32,0,0,0-5.9-2.53,7.51,7.51,0,0,0-6,2.67A10.47,10.47,0,0,0,259.7,586.91Z"/><path class="cls-5" d="M291.24,589.91v9h-3.11v-24.1H295A9,9,0,0,1,301,576.7a6.77,6.77,0,0,1,2.16,5.39,7.29,7.29,0,0,1-2.53,5.75,8.77,8.77,0,0,1-6.3,2.07Zm0-12.35v9.61h2.88a6.42,6.42,0,0,0,4.33-1.28,4.63,4.63,0,0,0,1.48-3.68q0-4.65-5.51-4.65Z"/><path class="cls-5" d="M151.86,656.18V633.75h6.59a7.36,7.36,0,0,1,4.72,1.42,4.55,4.55,0,0,1,1.76,3.74,5.37,5.37,0,0,1-1.05,3.27,5.63,5.63,0,0,1-2.88,2v.06a5.65,5.65,0,0,1,3.65,1.73,5.26,5.26,0,0,1,1.37,3.73,5.86,5.86,0,0,1-2.08,4.68,7.87,7.87,0,0,1-5.32,1.79Zm2.9-19.89v7h2.63a4.94,4.94,0,0,0,3.3-1,3.55,3.55,0,0,0,1.19-2.83c0-2.12-1.41-3.17-4.23-3.17Zm0,9.54v7.81h3.47a5.25,5.25,0,0,0,3.51-1,3.6,3.6,0,0,0,1.24-2.91q0-3.85-5.23-3.85Z"/><path class="cls-5" d="M183.8,639.63a3.63,3.63,0,0,0-1.14-2.84,4.49,4.49,0,0,0-3.12-1,6.25,6.25,0,0,0-2.8.71,9.25,9.25,0,0,0-2.65,2v-2.75a7.62,7.62,0,0,1,2.49-1.75,8.1,8.1,0,0,1,3.28-.61,7.1,7.1,0,0,1,4.89,1.63,5.54,5.54,0,0,1,1.86,4.4,7.9,7.9,0,0,1-1.14,4.29,13.68,13.68,0,0,1-3.89,3.71,45.9,45.9,0,0,0-3.75,2.77,5.56,5.56,0,0,0-1.33,1.61,4.21,4.21,0,0,0-.37,1.87h11.14v2.52h-14.1v-1.12a9.11,9.11,0,0,1,.53-3.29,8.3,8.3,0,0,1,1.75-2.64,25.24,25.24,0,0,1,3.79-3.07,15,15,0,0,0,3.6-3.25A5.48,5.48,0,0,0,183.8,639.63Z"/><path class="cls-5" d="M195.62,656.18V633.75h6.58a7.36,7.36,0,0,1,4.72,1.42,4.53,4.53,0,0,1,1.77,3.74,5.37,5.37,0,0,1-1.05,3.27,5.66,5.66,0,0,1-2.89,2v.06A5.65,5.65,0,0,1,208.4,646a5.22,5.22,0,0,1,1.37,3.73,5.86,5.86,0,0,1-2.08,4.68,7.85,7.85,0,0,1-5.32,1.79Zm2.89-19.89v7h2.63a4.94,4.94,0,0,0,3.3-1,3.55,3.55,0,0,0,1.19-2.83c0-2.12-1.41-3.17-4.23-3.17Zm0,9.54v7.81H202a5.25,5.25,0,0,0,3.51-1,3.6,3.6,0,0,0,1.24-2.91q0-3.85-5.22-3.85Z"/><path class="cls-5" d="M229.71,652a7.93,7.93,0,0,0,2.75,1.48,10.18,10.18,0,0,0,3.27.58q4.72,0,4.72-3.36A3,3,0,0,0,240,649a4.92,4.92,0,0,0-1.39-1.33,36,36,0,0,0-3.32-1.78,12.71,12.71,0,0,1-4.44-3.12,5.35,5.35,0,0,1-1.07-3.3A5.19,5.19,0,0,1,232,635a9.36,9.36,0,0,1,5.66-1.63,11.2,11.2,0,0,1,4.91.81v3.15a8.84,8.84,0,0,0-5.13-1.4,6,6,0,0,0-3.35.86,2.73,2.73,0,0,0-1.29,2.4,3,3,0,0,0,.89,2.21,17.85,17.85,0,0,0,3.9,2.33,13.86,13.86,0,0,1,4.62,3.16,5.41,5.41,0,0,1,1.31,3.54,5.3,5.3,0,0,1-2.14,4.54,9.88,9.88,0,0,1-5.95,1.57,15.14,15.14,0,0,1-3.1-.37,7.29,7.29,0,0,1-2.59-.92Z"/><path class="cls-5" d="M263.81,656.18H251.75V633.75H263.3v2.58h-8.66v7.18h8v2.56h-8v7.54h9.17Z"/><path class="cls-5" d="M288.3,656.18h-3.41L281.17,650a8.84,8.84,0,0,0-2.05-2.54,3.62,3.62,0,0,0-2.21-.67h-2.08v9.44h-2.9V633.75h6.83a7.69,7.69,0,0,1,5.13,1.58,5.51,5.51,0,0,1,1.85,4.42q0,4.65-5,6v.07a4.5,4.5,0,0,1,1.6,1.12,16,16,0,0,1,1.74,2.47Zm-13.47-19.89v7.92h3.41a4.53,4.53,0,0,0,3.22-1.16,4,4,0,0,0,1.24-3,3.46,3.46,0,0,0-1.13-2.74,4.89,4.89,0,0,0-3.28-1Z"/><path class="cls-5" d="M312.06,633.75l-8.24,22.43h-3.21l-8.08-22.43h3.22l6,17.53a9.6,9.6,0,0,1,.45,2h.07a8.91,8.91,0,0,1,.51-2l6.15-17.5Z"/><path class="cls-5" d="M322,633.75v22.43H319.1V633.75Z"/><path class="cls-5" d="M347,655.25a13.23,13.23,0,0,1-6.21,1.3,10.08,10.08,0,0,1-7.7-3.06,11.34,11.34,0,0,1-2.88-8.1,11.89,11.89,0,0,1,3.24-8.71,11.06,11.06,0,0,1,8.24-3.3,13.36,13.36,0,0,1,5.31.91v3a10.68,10.68,0,0,0-5.28-1.34,8,8,0,0,0-6.11,2.5,9.43,9.43,0,0,0-2.36,6.74,9,9,0,0,0,2.2,6.39,7.5,7.5,0,0,0,5.76,2.37,10.82,10.82,0,0,0,5.79-1.51Z"/><path class="cls-5" d="M367.47,656.18H355.41V633.75H367v2.58h-8.65v7.18h8v2.56h-8v7.54h9.16Z"/><path class="cls-5" d="M374.55,652a7.93,7.93,0,0,0,2.75,1.48,10.18,10.18,0,0,0,3.27.58q4.73,0,4.72-3.36a3,3,0,0,0-.5-1.69,4.92,4.92,0,0,0-1.39-1.33,36,36,0,0,0-3.32-1.78,12.71,12.71,0,0,1-4.44-3.12,5.35,5.35,0,0,1-1.07-3.3,5.19,5.19,0,0,1,2.24-4.43,9.36,9.36,0,0,1,5.66-1.63,11.23,11.23,0,0,1,4.91.81v3.15a8.84,8.84,0,0,0-5.13-1.4,6,6,0,0,0-3.35.86,2.73,2.73,0,0,0-1.29,2.4,3,3,0,0,0,.89,2.21,17.85,17.85,0,0,0,3.9,2.33A13.86,13.86,0,0,1,387,646.9a5.41,5.41,0,0,1,1.31,3.54,5.3,5.3,0,0,1-2.14,4.54,9.88,9.88,0,0,1-5.95,1.57,15.14,15.14,0,0,1-3.1-.37,7.29,7.29,0,0,1-2.59-.92Z"/><path class="cls-5" d="M187.93,900.47h-3.2l-2.29-6.14H173.1L171,900.47h-3.2l8.54-22.42h3.1Zm-6.39-8.67-3.38-9.32a9.46,9.46,0,0,1-.35-1.56h-.07a8.57,8.57,0,0,1-.37,1.56L174,891.8Z"/><path class="cls-5" d="M211.42,900.47H208l-3.72-6.22a8.86,8.86,0,0,0-2-2.54A3.68,3.68,0,0,0,200,891H198v9.44h-2.9V878.05h6.83a7.68,7.68,0,0,1,5.13,1.58,5.49,5.49,0,0,1,1.85,4.41q0,4.66-5,6.05v.07a4.77,4.77,0,0,1,1.6,1.12,17.16,17.16,0,0,1,1.75,2.47ZM198,880.58v7.92h3.41a4.47,4.47,0,0,0,3.22-1.16,3.94,3.94,0,0,0,1.24-3,3.41,3.41,0,0,0-1.13-2.73,4.83,4.83,0,0,0-3.28-1Z"/><path class="cls-5" d="M234.79,898.94a15.11,15.11,0,0,1-7.58,1.91,10.4,10.4,0,0,1-7.84-3.08,11.29,11.29,0,0,1-3-8.21,11.67,11.67,0,0,1,3.29-8.54,11.3,11.3,0,0,1,8.42-3.35,14.72,14.72,0,0,1,6.16,1.16V882a11.83,11.83,0,0,0-6.42-1.7,7.94,7.94,0,0,0-6,2.51,10.62,10.62,0,0,0-.19,13.16,7.69,7.69,0,0,0,5.91,2.34,9,9,0,0,0,4.35-1v-6.07H227v-2.56h7.77Z"/><path class="cls-5" d="M255.83,900.47H243.77V878.05h11.55v2.58h-8.66v7.18h8v2.56h-8v7.54h9.17Z"/><path class="cls-5" d="M282.26,900.47h-3.43L267.56,883a8.24,8.24,0,0,1-.77-1.46h-.09a25.28,25.28,0,0,1,.12,3.14v15.76H264V878.05h3.64l11,17.14a14.35,14.35,0,0,1,.92,1.55h.06a26.66,26.66,0,0,1-.14-3.27V878.05h2.86Z"/><path class="cls-5" d="M305.49,880.63H299v19.84h-2.91V880.63h-6.45v-2.58h15.83Z"/><path class="cls-5" d="M315.71,878.05v22.42h-2.9V878.05Z"/><path class="cls-5" d="M343.72,900.47h-3.43L329,883a8.24,8.24,0,0,1-.77-1.46h-.09a25.28,25.28,0,0,1,.12,3.14v15.76h-2.87V878.05h3.64l11,17.14a14.35,14.35,0,0,1,.92,1.55H341a26.66,26.66,0,0,1-.14-3.27V878.05h2.86Z"/><path class="cls-5" d="M371,900.47h-3.2l-2.28-6.14h-9.34L354,900.47h-3.19l8.54-22.42h3.09Zm-6.38-8.67-3.39-9.32a11,11,0,0,1-.34-1.56h-.08a7.91,7.91,0,0,1-.36,1.56l-3.36,9.32Z"/><path class="cls-5" d="M238.87,941.22a4,4,0,0,0-1.22-3.06,4.82,4.82,0,0,0-3.35-1.11,6.82,6.82,0,0,0-3,.76,10.13,10.13,0,0,0-2.85,2.18v-3a8.43,8.43,0,0,1,2.69-1.89,8.85,8.85,0,0,1,3.52-.65,7.67,7.67,0,0,1,5.26,1.75,6,6,0,0,1,2,4.74,8.4,8.4,0,0,1-1.22,4.6,14.65,14.65,0,0,1-4.18,4,48.48,48.48,0,0,0-4,3,5.88,5.88,0,0,0-1.43,1.72,4.53,4.53,0,0,0-.4,2h12V959H227.45v-1.2a9.73,9.73,0,0,1,.57-3.54,8.72,8.72,0,0,1,1.88-2.83,27.73,27.73,0,0,1,4.07-3.31,15.9,15.9,0,0,0,3.87-3.49A5.87,5.87,0,0,0,238.87,941.22Z"/><path class="cls-5" d="M249.87,947.43q0-6.37,2.11-9.66a6.87,6.87,0,0,1,6.13-3.27q7.67,0,7.66,12.36,0,6.09-2.15,9.32a6.87,6.87,0,0,1-6.05,3.23,6.43,6.43,0,0,1-5.69-3.06Q249.87,953.27,249.87,947.43Zm3.11-.14q0,9.6,4.87,9.6t4.79-9.75q0-10.11-4.7-10.1Q253,937,253,947.29Z"/><path class="cls-5" d="M284.6,941.22a3.93,3.93,0,0,0-1.23-3.06,4.79,4.79,0,0,0-3.34-1.11,6.82,6.82,0,0,0-3,.76,10.13,10.13,0,0,0-2.85,2.18v-3a8.32,8.32,0,0,1,2.69-1.89,8.85,8.85,0,0,1,3.52-.65,7.67,7.67,0,0,1,5.26,1.75,6,6,0,0,1,2,4.74,8.49,8.49,0,0,1-1.22,4.6,14.65,14.65,0,0,1-4.18,4q-3,2.08-4,3a5.83,5.83,0,0,0-1.42,1.72,4.53,4.53,0,0,0-.4,2h12V959H273.18v-1.2a9.73,9.73,0,0,1,.57-3.54,8.85,8.85,0,0,1,1.87-2.83,28.48,28.48,0,0,1,4.08-3.31,15.9,15.9,0,0,0,3.87-3.49A5.87,5.87,0,0,0,284.6,941.22Z"/><path class="cls-5" d="M307.47,941.22a3.93,3.93,0,0,0-1.23-3.06,4.82,4.82,0,0,0-3.35-1.11,6.85,6.85,0,0,0-3,.76A10.23,10.23,0,0,0,297,940v-3a8.28,8.28,0,0,1,2.68-1.89,8.9,8.9,0,0,1,3.53-.65,7.68,7.68,0,0,1,5.26,1.75,6,6,0,0,1,2,4.74,8.49,8.49,0,0,1-1.22,4.6,14.78,14.78,0,0,1-4.18,4,49.2,49.2,0,0,0-4,3,5.88,5.88,0,0,0-1.43,1.72,4.67,4.67,0,0,0-.4,2h12V959H296.05v-1.2a10,10,0,0,1,.56-3.54,8.89,8.89,0,0,1,1.88-2.83,27.38,27.38,0,0,1,4.08-3.31,15.82,15.82,0,0,0,3.86-3.49A5.88,5.88,0,0,0,307.47,941.22Z"/></g></g></svg>