<svg width="1609" height="872" viewBox="0 0 1609 872" fill="none" xmlns="http://www.w3.org/2000/svg">
<mask id="mask0_1321_260" style="mask-type:alpha" maskUnits="userSpaceOnUse" x="4" y="0" width="1605" height="872">
<rect x="4" width="1605" height="872" fill="#D9D9D9"/>
</mask>
<g mask="url(#mask0_1321_260)">
<path d="M631.555 826C493.732 817.41 355.908 761.575 235.313 671.381C-109.246 417.977 -242.762 70.0846 -225.534 -346.528C-225.534 -380.888 -212.613 -415.247 -203.999 -445.312C-156.623 -574.161 -61.869 -629.996 71.6475 -604.226C140.559 -591.341 209.471 -565.571 282.69 -548.392C403.285 -518.327 515.267 -535.507 614.328 -612.816C648.783 -638.586 687.546 -660.061 726.309 -677.241C812.449 -715.896 894.281 -690.126 941.658 -612.816C963.193 -574.161 984.728 -531.212 997.649 -483.967C1045.03 -333.643 1122.55 -213.384 1268.99 -144.664C1286.22 -136.074 1299.14 -127.484 1312.06 -114.599C1380.97 -50.1747 1372.36 44.3148 1286.22 78.6746C1230.23 104.444 1169.93 117.329 1109.63 125.919C907.202 160.279 833.984 254.769 855.519 460.927C859.826 503.877 868.439 546.827 872.746 589.776C881.36 735.805 795.221 826 631.555 826Z" fill="#EEF5FC"/>
</g>
</svg>
