<svg xmlns="http://www.w3.org/2000/svg" xmlns:xlink="http://www.w3.org/1999/xlink" viewBox="0 0 3657 2059.62"><defs><style>.cls-1,.cls-42{fill:none;}.cls-2{isolation:isolate;}.cls-3{clip-path:url(#clip-path);}.cls-4{clip-path:url(#clip-path-2);}.cls-5{fill:url(#Degradado_sin_nombre_3);}.cls-6{mix-blend-mode:overlay;}.cls-7{clip-path:url(#clip-path-3);}.cls-8{clip-path:url(#clip-path-4);}.cls-9{fill:url(#Degradado_sin_nombre_2);}.cls-10,.cls-43{mix-blend-mode:color-dodge;}.cls-11{clip-path:url(#clip-path-5);}.cls-12{clip-path:url(#clip-path-6);}.cls-13{fill:url(#Degradado_sin_nombre_11);}.cls-14{clip-path:url(#clip-path-7);}.cls-15{clip-path:url(#clip-path-8);}.cls-16{fill:url(#Degradado_sin_nombre_11-2);}.cls-17{clip-path:url(#clip-path-9);}.cls-18{clip-path:url(#clip-path-10);}.cls-19{fill:url(#Degradado_sin_nombre_11-3);}.cls-20{clip-path:url(#clip-path-11);}.cls-21{clip-path:url(#clip-path-12);}.cls-22{fill:url(#Degradado_sin_nombre_11-4);}.cls-23{clip-path:url(#clip-path-13);}.cls-24{clip-path:url(#clip-path-14);}.cls-25{fill:url(#Degradado_sin_nombre_11-5);}.cls-26{mix-blend-mode:color-burn;}.cls-27{clip-path:url(#clip-path-15);}.cls-28{clip-path:url(#clip-path-16);}.cls-29{fill:url(#Degradado_sin_nombre_14);}.cls-30{clip-path:url(#clip-path-17);}.cls-31{clip-path:url(#clip-path-18);}.cls-32{fill:url(#Degradado_sin_nombre_14-2);}.cls-33{clip-path:url(#clip-path-19);}.cls-34{clip-path:url(#clip-path-20);}.cls-35{fill:url(#Degradado_sin_nombre_14-3);}.cls-36{fill:#2e2f2f;}.cls-37{opacity:0.8;}.cls-38{clip-path:url(#clip-path-21);}.cls-39{opacity:0.67;}.cls-40{clip-path:url(#clip-path-22);}.cls-41{fill:#3c94d1;}.cls-42{stroke:#0781b1;stroke-miterlimit:10;stroke-width:3.8px;}.cls-43{opacity:0.3;fill:url(#Degradado_sin_nombre_21);}</style><clipPath id="clip-path"><circle class="cls-1" cx="1738.11" cy="-1223.48" r="3283.1"/></clipPath><clipPath id="clip-path-2"><rect class="cls-1" x="3.09" width="3647.32" height="2049.99"/></clipPath><linearGradient id="Degradado_sin_nombre_3" x1="778.1" y1="80.15" x2="780" y2="80.15" gradientTransform="matrix(2131.32, 0, 0, -2131.32, -1658507.24, 171860.51)" gradientUnits="userSpaceOnUse"><stop offset="0" stop-color="#1089ca"/><stop offset="0.29" stop-color="#1c92d0"/><stop offset="1" stop-color="#35a4dd"/></linearGradient><clipPath id="clip-path-3"><rect class="cls-1" x="1.18" width="3649.22" height="2049.99"/></clipPath><clipPath id="clip-path-4"><rect class="cls-1" x="1.18" width="3649.22" height="2049.99"/></clipPath><linearGradient id="Degradado_sin_nombre_2" x1="778.26" y1="80.24" x2="780.16" y2="80.24" gradientTransform="matrix(2570.88, 0, 0, -2570.88, -2000930.74, 207324.2)" gradientUnits="userSpaceOnUse"><stop offset="0" stop-color="#3099d5"/><stop offset="1" stop-color="#369cd8"/></linearGradient><clipPath id="clip-path-5"><rect class="cls-1" x="374.16" y="373.69" width="662.79" height="605.03"/></clipPath><clipPath id="clip-path-6"><path class="cls-1" d="M1033.05,373.69a4.07,4.07,0,0,1,2.76,1.05,3.34,3.34,0,0,1,0,5l-655,597.91a4.15,4.15,0,0,1-5.52,0,3.34,3.34,0,0,1,0-5l655-597.91a4.07,4.07,0,0,1,2.76-1.05"/></clipPath><linearGradient id="Degradado_sin_nombre_11" x1="779.82" y1="84.46" x2="781.72" y2="84.46" gradientTransform="matrix(-348.54, 0, 0, 348.54, 272832.32, -28761.59)" gradientUnits="userSpaceOnUse"><stop offset="0" stop-color="#908c60"/><stop offset="0.28" stop-color="#605d40"/><stop offset="0.61" stop-color="#2d2c1e"/><stop offset="0.86" stop-color="#0d0d09"/><stop offset="1" stop-color="#010101"/></linearGradient><clipPath id="clip-path-7"><rect class="cls-1" x="2285.86" y="1186.93" width="727.11" height="663.76"/></clipPath><clipPath id="clip-path-8"><path class="cls-1" d="M3009.06,1186.93a4.11,4.11,0,0,1,2.76,1,3.36,3.36,0,0,1,0,5L2292.5,1849.64a4.14,4.14,0,0,1-5.51,0,3.34,3.34,0,0,1,0-5L3006.31,1188a4.1,4.1,0,0,1,2.75-1"/></clipPath><linearGradient id="Degradado_sin_nombre_11-2" x1="777.3" y1="85.17" x2="779.2" y2="85.17" gradientTransform="matrix(-382.36, 0, 0, 382.36, 300223.86, -31047.68)" xlink:href="#Degradado_sin_nombre_11"/><clipPath id="clip-path-9"><rect class="cls-1" x="309.19" y="1658.5" width="198.84" height="181.51"/></clipPath><clipPath id="clip-path-10"><path class="cls-1" d="M504.12,1658.5a4.07,4.07,0,0,1,2.76,1,3.34,3.34,0,0,1,0,5L315.84,1839a4.16,4.16,0,0,1-5.51,0,3.34,3.34,0,0,1,0-5l191-174.39a4.06,4.06,0,0,1,2.75-1"/></clipPath><linearGradient id="Degradado_sin_nombre_11-3" x1="784.13" y1="98.16" x2="786.03" y2="98.16" gradientTransform="matrix(-104.56, 0, 0, 104.56, 82497.31, -8514.1)" xlink:href="#Degradado_sin_nombre_11"/><clipPath id="clip-path-11"><rect class="cls-1" x="2726.4" y="71.18" width="647.2" height="590.8"/></clipPath><clipPath id="clip-path-12"><path class="cls-1" d="M3369.7,71.18a4.1,4.1,0,0,1,2.75,1,3.33,3.33,0,0,1,0,5L2733.06,660.93a4.16,4.16,0,0,1-5.51,0,3.33,3.33,0,0,1,0-5L3366.94,72.22a4.11,4.11,0,0,1,2.76-1"/></clipPath><linearGradient id="Degradado_sin_nombre_11-4" x1="776.58" y1="84.12" x2="778.48" y2="84.12" gradientTransform="matrix(-340.34, 0, 0, 340.34, 267672.61, -28262.8)" xlink:href="#Degradado_sin_nombre_11"/><clipPath id="clip-path-13"><rect class="cls-1" x="1237.09" y="193.96" width="454.2" height="414.63"/></clipPath><clipPath id="clip-path-14"><path class="cls-1" d="M1687.39,194a4.07,4.07,0,0,1,2.76,1,3.34,3.34,0,0,1,0,5L1243.74,607.55a4.16,4.16,0,0,1-5.51,0,3.36,3.36,0,0,1,0-5L1684.64,195a4,4,0,0,1,2.75-1"/></clipPath><linearGradient id="Degradado_sin_nombre_11-5" x1="778.9" y1="85.65" x2="780.8" y2="85.65" gradientTransform="matrix(-238.85, 0, 0, 238.85, 187730.67, -20057)" xlink:href="#Degradado_sin_nombre_11"/><clipPath id="clip-path-15"><rect class="cls-1" x="170.36" y="221" width="1625.67" height="1484.02"/></clipPath><clipPath id="clip-path-16"><path class="cls-1" d="M170.36,1705c190.59-36.63,565-279.66,942.18-623.94S1755.91,395,1796,221Z"/></clipPath><radialGradient id="Degradado_sin_nombre_14" cx="781.11" cy="86.77" r="1.9" gradientTransform="matrix(-451.53, 412.19, 100.49, 91.74, 344899.11, -329017.66)" gradientUnits="userSpaceOnUse"><stop offset="0" stop-color="#cfcece"/><stop offset="0.55" stop-color="#ecebeb"/><stop offset="1" stop-color="#fff"/></radialGradient><clipPath id="clip-path-17"><rect class="cls-1" x="2144.82" y="826.16" width="1163.17" height="1061.81"/></clipPath><clipPath id="clip-path-18"><path class="cls-1" d="M2144.82,1888c136.36-26.21,404.28-200.09,674.12-446.43s460.33-490.9,489-615.38Z"/></clipPath><radialGradient id="Degradado_sin_nombre_14-2" cx="780.89" cy="96.89" r="1.9" gradientTransform="matrix(-323.07, 294.92, 71.9, 65.64, 248000.15, -235343.82)" xlink:href="#Degradado_sin_nombre_14"/><clipPath id="clip-path-19"><rect class="cls-1" x="2318.54" y="280.48" width="1422.25" height="1298.31"/></clipPath><clipPath id="clip-path-20"><path class="cls-1" d="M2318.54,1578.79c166.74-32,494.33-244.66,824.28-545.86s562.86-600.24,598-752.45Z"/></clipPath><radialGradient id="Degradado_sin_nombre_14-3" cx="780.16" cy="93.1" r="1.9" gradientTransform="matrix(-395.03, 360.61, 87.92, 80.26, 302977.89, -287924.74)" xlink:href="#Degradado_sin_nombre_14"/><clipPath id="clip-path-21"><rect class="cls-1" x="512.42" y="967.5" width="55.68" height="52.17"/></clipPath><clipPath id="clip-path-22"><rect class="cls-1" x="2917.8" y="1494.77" width="427.68" height="146.62"/></clipPath><linearGradient id="Degradado_sin_nombre_21" x1="-7120.24" y1="1420.26" x2="-4156.7" y2="1420.26" gradientTransform="matrix(-0.75, 0.66, -0.66, -0.75, -222.23, 5305.7)" gradientUnits="userSpaceOnUse"><stop offset="0" stop-color="#49c1f1"/><stop offset="1" stop-color="#2d9bd7"/></linearGradient></defs><g class="cls-2"><g id="Capa_1" data-name="Capa 1"><g class="cls-3"><g class="cls-4"><rect class="cls-5" x="-187.56" y="-989.31" width="4028.61" height="4028.61" transform="translate(-189.74 1591.92) rotate(-45)"/></g><g class="cls-6"><g class="cls-7"><g class="cls-8"><rect class="cls-9" x="-189.18" y="-989.98" width="4029.95" height="4029.95" transform="translate(-190.02 1591.25) rotate(-45)"/></g></g></g><g class="cls-10"><g class="cls-11"><g class="cls-12"><rect class="cls-13" x="373.78" y="373.69" width="663.55" height="605.38"/></g></g></g><g class="cls-10"><g class="cls-14"><g class="cls-15"><rect class="cls-16" x="2285.47" y="1186.93" width="727.88" height="664.1"/></g></g></g><g class="cls-10"><g class="cls-17"><g class="cls-18"><rect class="cls-19" x="308.81" y="1658.5" width="199.6" height="181.86"/></g></g></g><g class="cls-10"><g class="cls-20"><g class="cls-21"><rect class="cls-22" x="2726.02" y="71.18" width="647.95" height="591.14"/></g></g></g><g class="cls-10"><g class="cls-23"><g class="cls-24"><rect class="cls-25" x="1236.71" y="193.96" width="454.97" height="414.97"/></g></g></g><g class="cls-26"><g class="cls-27"><g class="cls-28"><polygon class="cls-29" points="2608.86 963.01 983.2 2447.02 -642.47 963.01 983.2 -521.01 2608.86 963.01"/></g></g></g><g class="cls-26"><g class="cls-30"><g class="cls-31"><polygon class="cls-32" points="3889.56 1357.06 2726.4 2418.87 1563.24 1357.06 2726.4 295.26 3889.56 1357.06"/></g></g></g><g class="cls-26"><g class="cls-33"><g class="cls-34"><polygon class="cls-35" points="4451.9 929.63 3029.66 2227.94 1607.42 929.63 3029.66 -368.68 4451.9 929.63"/></g></g></g><rect class="cls-1" x="3.09" width="3647.32" height="2049.99"/><rect class="cls-1" x="3.09" y="-1.88" width="3643.52" height="2053.76"/><rect class="cls-1" x="3.09" y="-1.88" width="3651.12" height="2053.76"/><rect class="cls-1" x="3.09" y="-1.88" width="3651.12" height="2053.76"/><rect class="cls-36" x="1092.35" y="1752.74" width="156.2" height="5.98"/><rect class="cls-36" x="1121.73" y="1769.53" width="156.2" height="5.98"/><rect class="cls-36" x="1258.32" y="1752.74" width="91.62" height="5.98"/><rect class="cls-36" x="1293.79" y="1769.53" width="35.43" height="5.98"/><rect class="cls-36" x="1044.68" y="1752.74" width="35.43" height="5.98"/><rect class="cls-36" x="2469.23" y="639.98" width="156.2" height="5.98"/><rect class="cls-36" x="2498.61" y="656.77" width="156.2" height="5.98"/><rect class="cls-36" x="2635.2" y="639.98" width="91.62" height="5.98"/><rect class="cls-36" x="2670.68" y="656.77" width="35.43" height="5.98"/><rect class="cls-36" x="2421.56" y="639.98" width="35.43" height="5.98"/><g class="cls-37"><g class="cls-38"><rect class="cls-36" x="536.74" y="967.5" width="8.43" height="19.84"/><rect class="cls-36" x="536.74" y="1000.97" width="8.43" height="18.7"/><rect class="cls-36" x="548.03" y="989.09" width="20.06" height="8.42" transform="translate(-1.88 1.06) rotate(-0.11)"/><rect class="cls-36" x="512.43" y="990.14" width="20.47" height="8.42" transform="translate(-1.94 1.02) rotate(-0.11)"/></g></g><g class="cls-39"><g class="cls-40"><polygon class="cls-41" points="3260.22 1627.09 3260.22 1639.49 3289.04 1639.49 3289.04 1610.66 3260.21 1610.66 3260.21 1623.06 3260.22 1627.09"/><polygon class="cls-42" points="3260.22 1627.09 3260.22 1639.49 3289.04 1639.49 3289.04 1610.66 3260.21 1610.66 3260.21 1623.06 3260.22 1627.09"/><polygon class="cls-41" points="3305.54 1518.34 3305.54 1534.7 3343.56 1534.71 3343.56 1496.67 3305.53 1496.68 3305.54 1513.03 3305.54 1518.34"/><polygon class="cls-42" points="3305.54 1518.34 3305.54 1534.7 3343.56 1534.71 3343.56 1496.67 3305.53 1496.68 3305.54 1513.03 3305.54 1518.34"/><rect class="cls-36" x="2917.8" y="1567.33" width="362.21" height="3.79"/><rect class="cls-36" x="3247.48" y="1513.8" width="58.05" height="3.79"/><rect class="cls-36" x="3272.73" y="1515.69" width="3.79" height="94.97"/><rect class="cls-36" x="2946.07" y="1540" width="3.79" height="23.02"/><polygon class="cls-41" points="3266.53 1572.25 3266.53 1579.22 3282.73 1579.23 3282.73 1563.02 3266.52 1563.02 3266.53 1569.99 3266.53 1572.25"/><polygon class="cls-42" points="3266.53 1572.25 3266.53 1579.22 3282.73 1579.23 3282.73 1563.02 3266.52 1563.02 3266.53 1569.99 3266.53 1572.25"/><polygon class="cls-41" points="2939.87 1570.36 2939.87 1577.33 2956.07 1577.33 2956.07 1561.13 2939.87 1561.13 2939.87 1568.1 2939.87 1570.36"/><polygon class="cls-42" points="2939.87 1570.36 2939.87 1577.33 2956.07 1577.33 2956.07 1561.13 2939.87 1561.13 2939.87 1568.1 2939.87 1570.36"/><polygon class="cls-41" points="2939.87 1533.03 2939.87 1540 2956.07 1540 2956.07 1523.8 2939.87 1523.8 2939.87 1530.76 2939.87 1533.03"/><polygon class="cls-42" points="2939.87 1533.03 2939.87 1540 2956.07 1540 2956.07 1523.8 2939.87 1523.8 2939.87 1530.76 2939.87 1533.03"/><polygon class="cls-41" points="3231.28 1516.82 3231.28 1523.79 3247.48 1523.79 3247.48 1507.59 3231.28 1507.59 3231.28 1514.56 3231.28 1516.82"/><polygon class="cls-42" points="3231.28 1516.82 3231.28 1523.79 3247.48 1523.79 3247.48 1507.59 3231.28 1507.59 3231.28 1514.56 3231.28 1516.82"/></g></g><polygon class="cls-36" points="330.07 1826.73 316.94 1831.54 330.07 1836.31 330.07 1841.24 311.31 1834.1 311.31 1828.98 330.07 1821.85 330.07 1826.73"/><polygon class="cls-36" points="344.19 1812.15 349.67 1812.15 336.66 1849.28 331.18 1849.28 344.19 1812.15"/><polygon class="cls-36" points="369.14 1828.98 369.14 1834.1 350.38 1841.24 350.38 1836.31 363.5 1831.54 350.38 1826.73 350.38 1821.85 369.14 1828.98"/><path class="cls-43" d="M2390.91,1634.68c342.59,42.9,547.16-124.11,738-373.43,163.32-213.32,292-482.5,525.85-612.59,233.14-129.7,481.08-149.88,639.82-364,212.82-287.13,93.69-580.15-131.36-733.26-312-212.3-671.07-71.4-863.18,200.16-159,224.71-322.71,466.34-612.33,548.46-266.75,75.64-516.17,62.5-756.1,271.83C1501.69,946.93,1705.23,1548.8,2390.91,1634.68Z"/></g></g></g></svg>