<svg width="45" height="45" viewBox="0 0 45 45" fill="none" xmlns="http://www.w3.org/2000/svg">
<g clip-path="url(#clip0_576_518)">
<path d="M45 9.7536C45 10.3982 45 11.0428 45 11.6874C44.9719 11.813 44.9332 11.9363 44.918 12.0631C44.1668 18.4516 37.9043 22.7748 31.6582 21.2191C30.0293 20.8128 28.5762 20.0625 27.3586 19.0563C24.5754 21.8355 21.8168 24.5924 19.0488 27.3563C20.2453 28.8145 21.0562 30.51 21.375 32.4321C21.5297 33.3608 21.5332 33.3596 22.5141 33.3596C23.468 33.3596 23.468 33.3596 23.6227 32.4473C24.4535 27.5289 28.4859 23.875 33.5121 23.4863C38.291 23.1165 42.8531 26.1446 44.4059 30.7601C44.6824 31.5832 44.8055 32.4591 45 33.3103C45 33.9256 45 34.5408 45 35.1561C44.9719 35.2817 44.9367 35.4073 44.9168 35.5353C44.2512 39.862 41.8734 42.8244 37.7883 44.3742C36.9516 44.6912 36.0352 44.7981 35.1562 45.0012C34.541 45.0012 33.9258 45.0012 33.3105 45.0012C32.5547 44.8392 31.773 44.7535 31.0477 44.5022C26.7363 43.0099 24.225 39.997 23.5512 35.4743C23.5148 35.2312 23.4551 35.1032 23.1809 35.1138C22.7273 35.1314 22.2727 35.1314 21.8191 35.1138C21.5449 35.1032 21.484 35.23 21.4488 35.4731C20.8266 39.7963 18.4617 42.7621 14.4082 44.346C13.548 44.6818 12.5977 44.7887 11.6895 45.0012C11.0742 45.0012 10.459 45.0012 9.84375 45.0012C9.73125 44.9742 9.61992 44.9343 9.50508 44.9225C5.25586 44.4435 1.60664 41.3661 0.440625 37.2472C0.247266 36.5639 0.144141 35.8547 0 35.1572C0 34.542 0 33.9267 0 33.3115C0.0738281 32.8982 0.132422 32.4802 0.221484 32.0704C1.2375 27.4279 4.79063 24.1802 9.55078 23.5497C9.81328 23.5145 9.89883 23.4135 9.89062 23.1599C9.87656 22.7208 9.87188 22.2816 9.8918 21.8425C9.90586 21.5478 9.76992 21.4844 9.50742 21.4468C5.26406 20.8316 2.31445 18.5303 0.717187 14.5617C0.352734 13.6529 0.233203 12.6478 0 11.6874C0 11.0722 0 10.4569 0 9.84166C0.0363281 9.62914 0.075 9.41662 0.107813 9.2041C1.01953 3.19252 6.60469 -0.842993 12.6187 0.164417C19.773 1.36321 23.727 9.39196 20.2734 15.7875C18.498 19.0739 15.7055 20.9619 11.9906 21.4492C11.7352 21.4821 11.6332 21.5701 11.6426 21.832C11.659 22.2711 11.6613 22.7114 11.6414 23.1493C11.6285 23.437 11.7492 23.5204 12.0187 23.5497C14.0016 23.7681 15.7746 24.5102 17.3531 25.7242C17.4762 25.8193 17.6016 25.9097 17.6789 25.9673C20.4586 23.1869 23.2102 20.4347 25.9699 17.6743C25.868 17.5428 25.7391 17.3831 25.6184 17.2188C23.8523 14.8141 23.141 12.1207 23.5887 9.17827C24.4289 3.65395 29.1668 -0.212481 34.7578 0.00825712C36.0703 0.0599192 37.3359 0.35815 38.5383 0.895905C39.0141 1.10842 39.2016 1.56751 39.0305 2.01838C38.8605 2.46808 38.4117 2.6759 37.9148 2.53148C37.8305 2.50682 37.7508 2.47042 37.6688 2.43755C35.9977 1.75303 34.2785 1.59569 32.5031 1.92093C26.2711 3.06219 23.1527 10.5097 26.7246 15.7417C26.7703 15.8075 26.8312 15.8626 26.9121 15.9542C27.9176 14.2623 29.2875 13.0365 31.0652 12.2639C28.5855 9.88628 29.2313 6.7255 30.7945 5.16859C32.5371 3.43322 35.3004 3.24888 37.2375 4.78935C38.2055 5.55841 38.8102 6.56464 38.9965 7.78574C39.2648 9.54578 38.6871 11.0299 37.3746 12.2604C39.2062 13.04 40.5539 14.294 41.5746 15.9789C42.627 14.4795 43.1543 12.8803 43.2352 11.1309C43.2914 9.93207 43.0816 8.77202 42.6938 7.6378C42.518 7.12353 42.7383 6.66562 43.2047 6.49302C43.657 6.32512 44.1094 6.52707 44.3145 7.00259C44.3953 7.18928 44.4691 7.38419 44.516 7.58144C44.6848 8.30471 44.8395 9.03033 45 9.7536ZM10.7719 25.224C5.81133 25.2217 1.76602 29.2584 1.75898 34.2156C1.75195 39.1763 5.78438 43.2283 10.7391 43.2412C15.716 43.2541 19.7777 39.2021 19.7754 34.2262C19.7719 29.2678 15.7301 25.2252 10.7719 25.224ZM41.5535 39.3924C43.8527 36.4382 44.0777 31.2168 40.4648 27.7367C36.9328 24.334 31.3453 24.3916 27.8719 27.8635C24.3422 31.3918 24.682 36.5686 26.9215 39.3971C27.9187 37.7415 29.277 36.5005 31.0945 35.7255C30.0211 34.7322 29.4199 33.5475 29.407 32.1068C29.3941 30.6697 29.9215 29.4521 30.9785 28.4729C32.7738 26.8091 35.6098 26.7856 37.4262 28.4153C38.3215 29.2196 38.8723 30.2141 39.0176 31.4094C39.225 33.1142 38.6426 34.5408 37.3922 35.7079C39.6434 36.9243 40.1227 37.3494 41.5535 39.3924ZM18.0797 15.9448C20.4809 12.8017 20.5406 7.51334 16.8316 4.11304C13.2328 0.813715 7.66875 0.999229 4.27734 4.52634C0.841406 8.09924 1.28438 13.229 3.46055 15.926C4.45195 14.2682 5.81719 13.0365 7.59609 12.2686C5.0543 9.83461 5.81133 6.5893 7.4168 5.08288C9.21328 3.39682 12.0047 3.28175 13.868 4.86684C14.7961 5.65703 15.3773 6.65622 15.5414 7.86441C15.7781 9.59744 15.2004 11.0545 13.9055 12.258C15.7184 13.0377 17.073 14.267 18.0797 15.9448ZM34.2691 13.3899C31.568 13.4874 29.5957 14.7578 28.2855 17.1096C28.1578 17.3385 28.2059 17.4606 28.3875 17.6238C31.5633 20.4735 36.9023 20.4746 40.0781 17.625C40.2609 17.4606 40.3066 17.3397 40.1801 17.1107C38.8898 14.7906 36.9492 13.5191 34.2691 13.3899ZM10.8 13.3899C8.1 13.4874 6.12773 14.7566 4.81875 17.1084C4.69102 17.3385 4.74023 17.4595 4.92188 17.6215C8.11523 20.4735 13.4121 20.4735 16.609 17.6215C16.793 17.4583 16.8375 17.3362 16.7109 17.1084C15.4219 14.7895 13.4801 13.5179 10.8 13.3899ZM40.3324 40.8495C39.027 38.4119 37.1145 36.9325 34.3289 36.8926C31.5855 36.8539 29.6227 38.2182 28.2879 40.5665C28.125 40.8542 28.2574 40.9798 28.4508 41.1371C30.552 42.842 32.9449 43.5253 35.6203 43.1296C37.3992 42.8678 38.9555 42.1046 40.3324 40.8495ZM10.7086 11.6346C12.4043 11.6733 13.7953 10.3336 13.8352 8.62408C13.875 6.9298 12.532 5.53492 10.8246 5.49852C9.12539 5.46213 7.73789 6.79712 7.69805 8.50784C7.6582 10.2021 9.00117 11.5958 10.7086 11.6346ZM37.3031 8.54776C37.2902 6.84409 35.9145 5.48678 34.2141 5.49852C32.509 5.51027 31.1508 6.88518 31.1625 8.58533C31.1754 10.2878 32.5512 11.6487 34.2504 11.6357C35.9555 11.6228 37.316 10.2456 37.3031 8.54776ZM37.3031 32.0293C37.2984 30.3268 35.9285 28.9625 34.227 28.966C32.523 28.9695 31.1602 30.3374 31.1625 32.0399C31.1648 33.7389 32.5383 35.1068 34.2375 35.1044C35.9391 35.1009 37.3078 33.7283 37.3031 32.0293Z" fill="#7640CC"/>
<path d="M42.2906 3.98628C42.2859 4.47589 41.9156 4.8434 41.4257 4.8434C40.9453 4.8434 40.5539 4.46298 40.5456 3.98863C40.5374 3.50723 40.9652 3.08454 41.4445 3.09746C41.9203 3.11155 42.2941 3.50371 42.2906 3.98628Z" fill="#7640CC"/>
<path d="M9.61876 36.6754C10.207 35.7936 10.7742 34.9436 11.3402 34.0935C12.2731 32.6939 13.2035 31.2932 14.1422 29.8971C14.5242 29.3288 15.1817 29.2431 15.5871 29.6916C15.8906 30.0263 15.8965 30.4208 15.5813 30.8951C14.441 32.6129 13.2961 34.3283 12.1524 36.0437C11.6004 36.8715 11.0531 37.7016 10.4965 38.5247C10.0172 39.2339 9.38556 39.2538 8.85704 38.5775C7.88556 37.3317 6.91876 36.0825 5.94845 34.8355C5.67657 34.4868 5.61681 34.1193 5.87228 33.7424C6.10431 33.3996 6.45587 33.2739 6.83321 33.4101C7.05001 33.4888 7.25275 33.6731 7.40157 33.8575C8.04493 34.6547 8.66603 35.4684 9.29532 36.2762C9.39376 36.4018 9.49689 36.5239 9.61876 36.6754Z" fill="#7640CC"/>
</g>
<defs>
<clipPath id="clip0_576_518">
<rect width="45" height="45" fill="white"/>
</clipPath>
</defs>
</svg>
