<svg width="45" height="45" viewBox="0 0 45 45" fill="none" xmlns="http://www.w3.org/2000/svg">
<g clip-path="url(#clip0_576_523)">
<path d="M26.2139 38.7185C26.2139 39.6609 26.2199 40.447 26.2124 41.2347C26.2064 41.893 25.8504 42.2899 25.2991 42.2793C24.7689 42.2688 24.4249 41.884 24.4174 41.2557C24.4069 40.4576 24.4144 39.6579 24.4144 38.7275C23.2353 39.7511 22.1538 40.6921 21.0723 41.633C19.9128 42.6416 18.7562 43.6547 17.5921 44.6603C17.1385 45.0526 16.7029 45.0796 16.3258 44.7685C15.8542 44.3792 15.8737 43.7885 16.4055 43.3195C17.8264 42.0674 19.2564 40.8273 20.6833 39.5828C21.8279 38.5847 22.9769 37.5926 24.1095 36.5811C24.2567 36.4503 24.3979 36.2188 24.3994 36.0324C24.4174 33.5388 24.4114 31.0436 24.4084 28.5485C24.4084 28.4958 24.3874 28.4432 24.3708 28.3591C21.0753 28.3591 17.7828 28.3591 14.3987 28.3591C14.3987 29.1181 14.4017 29.8967 14.3972 30.6754C14.3957 30.8798 14.4062 31.0962 14.3461 31.2871C14.2125 31.7065 13.9 31.9395 13.4554 31.9184C13.0123 31.8974 12.7299 31.6328 12.6233 31.2075C12.5827 31.0466 12.5993 30.8723 12.5993 30.7039C12.5978 27.346 12.6098 23.9895 12.5872 20.6331C12.5827 20.0078 12.8471 19.6892 13.3863 19.4396C16.09 18.1951 18.7832 16.931 21.4749 15.6593C22.0877 15.3692 22.1929 14.798 21.7738 14.272C21.4659 13.8842 21.1069 13.8796 20.6743 14.0811C18.0307 15.3196 15.3856 16.5582 12.7254 17.7607C12.3619 17.9245 11.8933 17.9952 11.4998 17.935C8.80357 17.5217 6.15996 17.672 3.56591 18.5393C2.57305 18.8715 1.81602 19.8425 1.80851 20.9232C1.78748 24.0557 1.79499 27.1866 1.8025 30.3191C1.804 30.8843 2.12995 31.1729 2.69172 31.1759C3.27451 31.1789 3.59144 30.8798 3.59295 30.2725C3.60046 27.7037 3.59595 25.1334 3.59745 22.5646C3.59745 22.3962 3.58994 22.2264 3.60046 22.058C3.635 21.5244 3.9955 21.1502 4.47766 21.1396C4.97934 21.1276 5.37138 21.5154 5.3909 22.0776C5.40893 22.6022 5.39691 23.1283 5.39691 23.6528C5.39691 29.6547 5.39541 35.6566 5.39841 41.6586C5.39841 42.7047 6.05932 43.2533 7.0717 43.0685C7.75213 42.9437 8.0946 42.4928 8.0946 41.6796C8.0976 38.7906 8.0961 35.9032 8.0961 33.0142C8.0961 32.1709 8.09009 31.3262 8.0991 30.483C8.10662 29.8577 8.44758 29.4684 8.9763 29.4563C9.52606 29.4443 9.89256 29.8441 9.89406 30.501C9.89857 34.2332 9.89406 37.9654 9.89857 41.6976C9.90007 42.6401 10.4123 43.1286 11.33 43.091C12.1141 43.0579 12.5812 42.601 12.5917 41.8104C12.6068 40.6845 12.5932 39.5602 12.5978 38.4344C12.6008 37.74 12.9582 37.3206 13.52 37.3371C14.0608 37.3521 14.3912 37.755 14.3942 38.4269C14.4002 39.5151 14.3882 40.6019 14.3972 41.6901C14.4077 42.9362 13.9526 43.9403 12.8186 44.5175C11.6439 45.1142 10.4693 45.0511 9.35032 44.3266C9.24067 44.2559 9.13853 44.1748 9.00184 44.077C8.27935 44.6557 7.45923 44.9504 6.51594 44.8947C4.83665 44.797 3.60647 43.5419 3.60046 41.857C3.58994 39.0807 3.59745 36.306 3.59745 33.5298C3.59745 33.3283 3.59745 33.1254 3.59745 32.9045C3.3391 32.93 3.13782 32.9556 2.93655 32.9706C1.22271 33.0939 0.00153841 31.9695 3.6356e-05 30.259C-0.00296775 27.2017 -0.0044698 24.1444 3.6356e-05 21.087C0.00454251 19.0082 1.31884 17.2812 3.31357 16.7205C3.95644 16.5401 4.60233 16.3718 5.26023 16.1959C1.92867 12.4276 4.58731 7.88676 8.0976 7.23742C8.0976 6.39568 8.0976 5.53891 8.0976 4.68214C8.0991 2.89645 9.22414 1.77213 11.0131 1.77213C15.6619 1.77062 20.3108 1.77213 24.9611 1.77213C25.1654 1.77213 25.3682 1.77213 25.6085 1.77213C25.7257 1.05214 25.3952 -0.00604935 26.5548 0.00447239C27.6678 0.0149941 27.399 1.01456 27.4621 1.77213C27.6934 1.77213 27.8932 1.77213 28.0944 1.77213C32.7628 1.77213 37.4297 1.77213 42.0981 1.77213C43.8495 1.77213 44.9925 2.90847 44.994 4.64757C44.9955 7.91081 44.994 11.1741 44.994 14.4373C44.994 14.5876 45.003 14.7394 44.9865 14.8867C44.9309 15.3812 44.5554 15.7255 44.0883 15.7225C43.6196 15.7194 43.2411 15.3752 43.2051 14.8747C43.1765 14.4824 43.1946 14.0871 43.1946 13.6933C43.1946 10.7306 43.1946 7.76651 43.1946 4.80389C43.1946 3.85242 42.9107 3.57285 41.9494 3.57285C31.6768 3.57285 21.4028 3.57285 11.1302 3.57285C10.1779 3.57285 9.90007 3.85543 9.89857 4.81592C9.89706 5.60204 9.89857 6.38967 9.89857 7.22239C11.7176 7.66129 13.0829 8.68491 13.8324 10.4165C14.5895 12.1691 14.3251 13.8451 13.2361 15.5481C14.615 14.9093 15.8662 14.3336 17.1144 13.7504C18.0472 13.3145 18.977 12.8726 19.9052 12.4291C21.3457 11.7422 22.8553 12.2788 23.5342 13.7203C24.2146 15.1663 23.6724 16.6559 22.2094 17.3383C19.7671 18.4776 17.3262 19.62 14.8749 20.7413C14.5204 20.9037 14.3807 21.0855 14.3882 21.4884C14.4137 23.1373 14.3987 24.7877 14.3987 26.5283C14.6135 26.5283 14.8088 26.5283 15.0055 26.5283C23.9668 26.5283 32.9265 26.5283 41.8878 26.5283C42.9287 26.5283 43.1946 26.2682 43.1961 25.2461C43.1976 24.2526 43.1931 23.2575 43.1976 22.264C43.2006 21.5485 43.525 21.1381 44.0838 21.1306C44.644 21.1216 44.9925 21.538 44.9955 22.2399C45 23.3462 45.0015 24.4525 44.9955 25.5603C44.988 27.1521 43.8149 28.326 42.2182 28.3275C37.1383 28.332 32.0569 28.329 26.9769 28.329C26.7531 28.329 26.5278 28.329 26.2484 28.329C26.2364 28.5049 26.2154 28.6642 26.2154 28.8235C26.2139 31.1684 26.2018 33.5132 26.2304 35.8566C26.2334 36.1256 26.4001 36.4683 26.6044 36.6487C29.0768 38.8342 31.5717 40.9927 34.0516 43.1707C34.2814 43.3721 34.5683 43.6532 34.5863 43.9132C34.6073 44.2108 34.4316 44.6091 34.2063 44.8166C33.8608 45.1352 33.4327 45.009 33.0873 44.7084C31.8706 43.6502 30.6584 42.5875 29.4418 41.5293C28.4009 40.6199 27.3584 39.715 26.2139 38.7185ZM8.95678 15.8562C10.8719 15.8773 12.4581 14.3366 12.4686 12.4442C12.4791 10.5939 10.8989 8.98854 9.0469 8.9705C7.15882 8.95246 5.55012 10.5292 5.5351 12.4111C5.51858 14.2674 7.07621 15.8352 8.95678 15.8562Z" fill="#7640CC"/>
<path d="M26.5503 8.96904C23.8316 8.96904 21.1144 8.96904 18.3957 8.96904C18.2274 8.96904 18.0547 8.98557 17.891 8.95551C17.4073 8.86532 17.1129 8.56771 17.1129 8.07018C17.1129 7.57265 17.4058 7.27504 17.8895 7.18335C18.0532 7.15329 18.2259 7.16982 18.3942 7.16982C23.8301 7.16982 29.2675 7.16982 34.7035 7.16982C34.8717 7.16982 35.0444 7.15329 35.2081 7.18335C35.6933 7.27353 35.9862 7.57115 35.9862 8.06868C35.9862 8.56621 35.6933 8.86382 35.2096 8.95551C35.0459 8.98708 34.8732 8.96904 34.705 8.96904C31.9862 8.96904 29.2675 8.96904 26.5503 8.96904Z" fill="#7640CC"/>
<path d="M31.6662 19.7735C29.4763 19.7735 27.2863 19.7735 25.0963 19.7735C24.928 19.7735 24.7538 19.79 24.5931 19.7525C24.141 19.6487 23.8631 19.3616 23.8586 18.8882C23.8541 18.3891 24.1365 18.087 24.6186 17.9908C24.7989 17.9547 24.9911 17.9743 25.1789 17.9743C29.5408 17.9743 33.9028 17.9743 38.2633 17.9743C38.3939 17.9743 38.5261 17.9698 38.6568 17.9773C39.2246 18.0104 39.6031 18.3771 39.5941 18.8867C39.5866 19.3932 39.2065 19.7479 38.6313 19.772C38.3879 19.7825 38.1446 19.775 37.9013 19.775C35.8224 19.7735 33.7436 19.7735 31.6662 19.7735Z" fill="#7640CC"/>
<path d="M32.1138 12.5706C30.0545 12.5706 27.9952 12.5706 25.9344 12.5706C25.7662 12.5706 25.5934 12.5871 25.4297 12.5586C24.9475 12.4744 24.6592 12.1888 24.6381 11.6868C24.6171 11.2133 24.9596 10.83 25.4537 10.7819C25.7316 10.7548 26.0155 10.7714 26.2964 10.7714C30.2663 10.7714 34.2347 10.7714 38.2047 10.7714C38.3549 10.7714 38.5051 10.7653 38.6538 10.7744C39.2231 10.8059 39.6001 11.1742 39.5926 11.6837C39.5851 12.1918 39.205 12.5631 38.6297 12.5676C37.1322 12.5796 35.6347 12.5721 34.1356 12.5721C33.4627 12.5706 32.7883 12.5706 32.1138 12.5706Z" fill="#7640CC"/>
<path d="M32.5645 16.1721C30.6359 16.1721 28.7072 16.1736 26.7786 16.1706C26.0546 16.1691 25.6581 15.8549 25.6475 15.2883C25.637 14.7156 26.0366 14.3729 26.744 14.3729C30.6584 14.3699 34.5712 14.3699 38.4856 14.3729C39.3207 14.3729 39.8014 14.9546 39.522 15.6069C39.3342 16.0473 38.9723 16.1751 38.5216 16.1736C36.5344 16.1691 34.5487 16.1721 32.5645 16.1721Z" fill="#7640CC"/>
<path d="M44.9925 18.4387C44.9834 18.9272 44.5719 19.327 44.0822 19.318C43.594 19.3105 43.1945 18.8971 43.202 18.4086C43.2095 17.9141 43.6136 17.5263 44.1123 17.5338C44.6079 17.5413 45.0015 17.9456 44.9925 18.4387Z" fill="#7640CC"/>
<path d="M13.4944 33.7403C13.99 33.7372 14.3926 34.1311 14.3956 34.6241C14.3986 35.1126 13.9945 35.5199 13.5064 35.5244C13.0182 35.5274 12.6096 35.1246 12.6051 34.6361C12.6006 34.1431 12.9987 33.7433 13.4944 33.7403Z" fill="#7640CC"/>
</g>
<defs>
<clipPath id="clip0_576_523">
<rect width="45" height="45" fill="white"/>
</clipPath>
</defs>
</svg>
