<svg width="35" height="35" viewBox="0 0 35 35" fill="none" xmlns="http://www.w3.org/2000/svg">
<path d="M17.5 0C14.0388 0 10.6554 1.02636 7.77753 2.94928C4.89967 4.87221 2.65665 7.60533 1.33212 10.803C0.00758247 14.0007 -0.338976 17.5194 0.336265 20.9141C1.01151 24.3087 2.67822 27.4269 5.12564 29.8744C7.57306 32.3218 10.6913 33.9885 14.0859 34.6637C17.4806 35.339 20.9993 34.9924 24.197 33.6679C27.3947 32.3433 30.1278 30.1003 32.0507 27.2225C33.9736 24.3446 35 20.9612 35 17.5C35 15.2019 34.5473 12.9262 33.6679 10.803C32.7884 8.67984 31.4994 6.75065 29.8744 5.12563C28.2493 3.50061 26.3202 2.21157 24.197 1.33211C22.0738 0.452651 19.7981 0 17.5 0ZM17.5 31.5C14.7311 31.5 12.0243 30.6789 9.72202 29.1406C7.41973 27.6022 5.62532 25.4157 4.56569 22.8576C3.50607 20.2994 3.22882 17.4845 3.76901 14.7687C4.30921 12.053 5.64258 9.55844 7.60051 7.6005C9.55844 5.64257 12.053 4.3092 14.7687 3.76901C17.4845 3.22881 20.2994 3.50606 22.8576 4.56569C25.4157 5.62531 27.6022 7.41973 29.1406 9.72201C30.6789 12.0243 31.5 14.7311 31.5 17.5C31.5 21.213 30.025 24.774 27.3995 27.3995C24.774 30.025 21.213 31.5 17.5 31.5ZM22.925 18.6025L19.25 16.485V8.75C19.25 8.28587 19.0656 7.84075 18.7374 7.51256C18.4093 7.18437 17.9641 7 17.5 7C17.0359 7 16.5908 7.18437 16.2626 7.51256C15.9344 7.84075 15.75 8.28587 15.75 8.75V17.5C15.75 17.5 15.75 17.64 15.75 17.71C15.7604 17.8306 15.7899 17.9487 15.8375 18.06C15.8735 18.1638 15.9205 18.2635 15.9775 18.3575C16.0254 18.457 16.0841 18.5509 16.1525 18.6375L16.4325 18.865L16.59 19.0225L21.14 21.6475C21.4067 21.7987 21.7084 21.8771 22.015 21.875C22.4025 21.8777 22.7799 21.7517 23.0881 21.5168C23.3963 21.2819 23.6178 20.9514 23.7178 20.5771C23.8179 20.2027 23.791 19.8058 23.6411 19.4484C23.4913 19.0911 23.2271 18.7935 22.89 18.6025H22.925Z" fill="#212121"/>
</svg>
