<svg width="39" height="35" viewBox="0 0 39 35" fill="none" xmlns="http://www.w3.org/2000/svg">
<path d="M33.0556 0H5.83333C4.28624 0 2.80251 0.614582 1.70854 1.70854C0.614582 2.80251 0 4.28624 0 5.83333V21.3889C0 22.936 0.614582 24.4197 1.70854 25.5137C2.80251 26.6076 4.28624 27.2222 5.83333 27.2222H17.5V31.1111H9.72222C9.20652 31.1111 8.71195 31.316 8.34729 31.6806C7.98264 32.0453 7.77778 32.5399 7.77778 33.0556C7.77778 33.5713 7.98264 34.0658 8.34729 34.4305C8.71195 34.7951 9.20652 35 9.72222 35H29.1667C29.6824 35 30.1769 34.7951 30.5416 34.4305C30.9063 34.0658 31.1111 33.5713 31.1111 33.0556C31.1111 32.5399 30.9063 32.0453 30.5416 31.6806C30.1769 31.316 29.6824 31.1111 29.1667 31.1111H21.3889V27.2222H33.0556C34.6026 27.2222 36.0864 26.6076 37.1803 25.5137C38.2743 24.4197 38.8889 22.936 38.8889 21.3889V5.83333C38.8889 4.28624 38.2743 2.80251 37.1803 1.70854C36.0864 0.614582 34.6026 0 33.0556 0ZM35 21.3889C35 21.9046 34.7951 22.3992 34.4305 22.7638C34.0658 23.1285 33.5713 23.3333 33.0556 23.3333H5.83333C5.31763 23.3333 4.82306 23.1285 4.4584 22.7638C4.09375 22.3992 3.88889 21.9046 3.88889 21.3889V5.83333C3.88889 5.31763 4.09375 4.82306 4.4584 4.4584C4.82306 4.09375 5.31763 3.88889 5.83333 3.88889H33.0556C33.5713 3.88889 34.0658 4.09375 34.4305 4.4584C34.7951 4.82306 35 5.31763 35 5.83333V21.3889Z" fill="#212121"/>
</svg>
