<svg width="25" height="35" viewBox="0 0 25 35" fill="none" xmlns="http://www.w3.org/2000/svg">
<path d="M13.4925 25.0075L13.23 24.7975C13.1324 24.7313 13.0265 24.6783 12.915 24.64L12.6 24.5C12.3162 24.4407 12.0221 24.4528 11.7441 24.5353C11.4661 24.6177 11.213 24.768 11.0075 24.9725C10.8529 25.1426 10.7286 25.3379 10.64 25.55C10.5076 25.8689 10.4724 26.2198 10.5389 26.5586C10.6055 26.8973 10.7708 27.2089 11.014 27.454C11.2572 27.699 11.5674 27.8667 11.9057 27.9358C12.244 28.005 12.5951 27.9725 12.915 27.8425C13.1241 27.741 13.3184 27.6115 13.4925 27.4575C13.7353 27.2114 13.8998 26.8989 13.9652 26.5594C14.0306 26.2199 13.994 25.8687 13.86 25.55C13.7727 25.3476 13.6481 25.1636 13.4925 25.0075ZM19.25 0H5.25C3.85761 0 2.52226 0.553124 1.53769 1.53769C0.553124 2.52226 0 3.85761 0 5.25V29.75C0 31.1424 0.553124 32.4777 1.53769 33.4623C2.52226 34.4469 3.85761 35 5.25 35H19.25C20.6424 35 21.9777 34.4469 22.9623 33.4623C23.9469 32.4777 24.5 31.1424 24.5 29.75V5.25C24.5 3.85761 23.9469 2.52226 22.9623 1.53769C21.9777 0.553124 20.6424 0 19.25 0ZM21 29.75C21 30.2141 20.8156 30.6593 20.4874 30.9874C20.1593 31.3156 19.7141 31.5 19.25 31.5H5.25C4.78587 31.5 4.34075 31.3156 4.01256 30.9874C3.68437 30.6593 3.5 30.2141 3.5 29.75V5.25C3.5 4.78587 3.68437 4.34075 4.01256 4.01256C4.34075 3.68437 4.78587 3.5 5.25 3.5H19.25C19.7141 3.5 20.1593 3.68437 20.4874 4.01256C20.8156 4.34075 21 4.78587 21 5.25V29.75Z" fill="#212121"/>
</svg>
