<svg width="80" height="76" viewBox="0 0 80 76" fill="none" xmlns="http://www.w3.org/2000/svg">
<path d="M73.6754 67.4083C73.7214 66.912 73.9467 66.2487 73.8179 65.6531C73.5604 64.4483 73.1006 63.2887 72.7466 62.1019C72.564 61.664 72.4733 61.1944 72.4799 60.7212C72.9397 57.504 71.2936 55.0538 68.9531 53.3798C65.946 51.2274 62.5158 49.6662 59.2695 47.8252C58.2901 47.2702 57.3751 46.6114 56.4095 46.0203C52.4919 43.6739 49.6319 40.3078 47.0523 36.6755C46.8822 36.4363 46.7581 36.1611 46.5374 36.0934C50.8412 38.8007 55.0852 41.6073 59.4718 44.1748C61.9824 45.6413 64.7275 46.7107 67.3714 47.9606C68.1853 48.3441 68.5025 48.2584 68.8934 47.2476C69.6934 45.172 70.8935 43.2453 71.8775 41.2328C72.5689 39.8868 73.183 38.5039 73.7168 37.0906C74.3789 35.209 73.68 33.4221 73.1282 31.6127C71.6568 26.7756 69.9647 21.9746 68.9393 17.0472C67.8772 11.9078 69.7532 7.40909 73.8179 3.96174C75.5744 2.49527 77.6344 1.32209 79.5472 0L79.8323 0.293295C79.2759 1.13257 78.7103 1.96734 78.1632 2.81112C76.1049 5.96388 75.0117 9.63 75.0134 13.3743C75.0134 17.0111 75.9331 20.4856 76.9263 23.951C77.9195 27.4164 78.9954 30.9269 79.7909 34.469C80.1047 35.7846 80.0646 37.1576 79.6744 38.4534C79.2843 39.7492 78.5575 40.9231 77.5654 41.86C75.3708 44.0192 73.4992 46.4727 72.0063 49.1473C71.3947 50.2393 71.4085 51.1823 72.2408 52.1118C74.1766 54.2732 75.11 56.6602 74.4663 59.6202C74.131 61.1666 74.3486 62.7791 75.0824 64.1866C76.0848 66.1675 74.8157 68.771 72.6776 69.4433C72.0155 69.6554 71.5143 69.5336 71.3809 68.8161C71.0821 67.2639 69.9555 66.3931 68.7784 65.4861C65.8211 63.1467 62.3074 61.5817 58.566 60.9378C56.0968 60.5272 53.8575 61.4296 54.0093 64.5205C54.0461 65.274 54.0093 66.0276 54.0093 66.8894C53.7886 66.7947 53.6138 66.7721 53.5265 66.6728C51.8582 64.8046 50.6235 62.603 49.9078 60.2203C49.6135 59.1825 50.5469 57.7115 51.8666 57.5807C53.7012 57.3444 55.5618 57.3839 57.3843 57.698C61.9042 58.6004 65.7253 61.028 69.3394 63.7579C70.8108 64.8634 72.158 66.1223 73.6754 67.4083Z" fill="#4C94D3"/>
<path d="M0.482801 3.37964C0.809267 3.85794 1.14033 4.32721 1.4576 4.81002C5.09011 10.4323 8.86515 15.9507 13.9415 20.4675C19.0178 24.9842 24.6413 28.6933 31.3821 30.232C36.5734 31.4277 40.353 34.2298 43.4567 38.354C45.7558 41.3727 48.3537 44.1387 51.6827 46.1647C53.8117 47.4597 55.821 48.9623 57.8488 50.3611C56.1499 50.9408 54.3013 50.9408 52.6024 50.3611C50.3007 49.5743 48.0717 48.5961 45.9397 47.4371C42.7808 45.6954 40.353 43.1415 38.1229 40.3213C36.6147 38.4127 34.2191 37.5463 31.8787 36.7612C27.7404 35.3759 23.3078 34.5592 19.6339 32.0549C16.4934 29.9071 13.1506 28.039 10.4837 25.2685C6.10629 20.7021 2.37262 15.7928 0.919622 9.54336C0.459811 7.57151 0.289681 5.53198 0 3.51952L0.482801 3.37964Z" fill="#4C94D3"/>
<path d="M0.611454 16.7314C1.31497 18.3288 1.90352 19.9893 2.75877 21.5144C5.42568 26.347 8.43284 30.9901 12.1849 35.0511C14.9646 38.0353 18.5207 40.2194 22.4709 41.3683C25.2897 42.1487 28.1492 42.7798 31.0371 43.2589C33.5339 43.7101 35.5157 44.8111 36.9687 46.9048C38.8493 49.6121 40.8357 52.2382 42.8635 55.0268C42.0985 55.0904 41.3294 55.0904 40.5644 55.0268C33.0511 53.7769 25.6252 52.148 18.6866 48.9759C12.0653 45.9482 7.83508 40.714 5.1222 34.1532C3.2222 29.5345 1.7839 24.7456 0.827566 19.8539C0.625249 18.8612 0.560875 17.8234 0.459717 16.7946L0.611454 16.7314Z" fill="#4C94D3"/>
<path d="M66.3968 7.84675C65.9784 8.86652 65.5784 9.8908 65.1369 10.897C63.6748 14.2406 62.7873 17.7421 62.9804 21.3654C63.1046 23.7614 63.7713 26.1303 64.2219 28.5083C64.8657 31.9015 66.5854 34.8751 68.1395 37.8983C68.4561 38.4936 68.6187 39.1561 68.6131 39.8276C68.6074 40.4991 68.4337 41.1589 68.1071 41.749C67.7806 42.3391 67.3112 42.8414 66.7404 43.2117C66.1695 43.582 65.5147 43.8089 64.8335 43.8725C64.6388 43.8452 64.4518 43.7791 64.2842 43.6782C64.1165 43.5774 63.9717 43.4438 63.8587 43.2859C59.8491 38.0517 56.8236 32.4159 55.9913 25.7739C55.389 20.9368 56.9109 16.781 59.9181 13.1396C61.3619 11.3843 63.2425 9.98104 64.9484 8.43334C65.3255 8.13925 65.7323 7.88373 66.1623 7.67078L66.3968 7.84675Z" fill="#4C94D3"/>
<path d="M57.596 75.0792C53.1818 74.9032 48.8596 74.7859 45.5352 71.2302C43.6434 69.2375 41.5821 67.4064 39.3737 65.7569C37.0747 64.0106 34.2514 63.6136 31.4144 63.5008C25.7932 63.2432 20.2047 64.4728 15.2336 67.0609C15.3394 66.3254 15.2796 65.802 15.4911 65.432C16.5947 63.4827 18.4201 62.314 20.4019 61.4206C24.7471 59.4623 29.3222 58.3343 34.1227 58.7133C39.7002 59.1645 44.0914 61.7726 47.1583 66.3841C49.7608 70.3233 52.8784 73.5766 57.596 75.0792Z" fill="#4C94D3"/>
</svg>
