<svg width="80" height="75" viewBox="0 0 80 75" fill="none" xmlns="http://www.w3.org/2000/svg">
<path d="M73.6605 67.3373C73.7065 66.8415 73.9317 66.1789 73.803 65.5839C73.5456 64.3804 73.0859 63.222 72.7319 62.0365C72.5493 61.599 72.4586 61.1299 72.4652 60.6572C72.925 57.4434 71.2792 54.9958 68.9392 53.3235C65.9327 51.1734 62.5032 49.6139 59.2576 47.7748C58.2784 47.2204 57.3635 46.5623 56.3981 45.9718C52.4813 43.6279 49.6219 40.2653 47.0429 36.6368C46.8728 36.3979 46.7486 36.123 46.528 36.0554C50.8309 38.7598 55.0741 41.5635 59.4598 44.1283C61.9699 45.5932 64.7144 46.6615 67.3578 47.91C68.1715 48.2932 68.4887 48.2075 68.8794 47.1978C69.6793 45.1244 70.8792 43.1997 71.863 41.1894C72.5542 39.8448 73.1682 38.4634 73.7019 37.0515C74.3639 35.1719 73.6651 33.3869 73.1134 31.5794C71.6423 26.7474 69.9506 21.9514 68.9254 17.0293C67.8635 11.8952 69.7391 7.40129 73.803 3.95757C75.5591 2.49264 77.6187 1.32069 79.5311 0L79.8161 0.292986C79.2599 1.13138 78.6944 1.96526 78.1473 2.80816C76.0895 5.95759 74.9965 9.61985 74.9983 13.3602C74.9983 16.9932 75.9177 20.464 76.9107 23.9257C77.9037 27.3875 78.9794 30.8943 79.7747 34.4327C80.0885 35.7469 80.0484 37.1185 79.6583 38.4129C79.2682 39.7073 78.5416 40.88 77.5497 41.8159C75.3556 43.9728 73.4843 46.4237 71.9917 49.0955C71.3803 50.1863 71.3941 51.1284 72.2262 52.0569C74.1616 54.216 75.0948 56.6005 74.4512 59.5574C74.116 61.1021 74.3335 62.713 75.0672 64.1189C76.0694 66.0977 74.8006 68.6985 72.6629 69.3701C72.0009 69.582 71.4998 69.4603 71.3665 68.7436C71.0677 67.193 69.9414 66.3231 68.7645 65.4171C65.8078 63.0801 62.2948 61.5168 58.5542 60.8736C56.0855 60.4634 53.8467 61.3649 53.9984 64.4525C54.0352 65.2052 53.9984 65.958 53.9984 66.8189C53.7777 66.7243 53.603 66.7017 53.5157 66.6026C51.8477 64.7363 50.6133 62.537 49.8977 60.1569C49.6035 59.1201 50.5367 57.6507 51.8561 57.52C53.6904 57.2839 55.5506 57.3234 57.3727 57.6372C61.8917 58.5387 65.712 60.9637 69.3254 63.6907C70.7965 64.7951 72.1434 66.0526 73.6605 67.3373Z" fill="url(#paint0_linear_614_180)"/>
<path d="M0.482703 3.37622C0.809102 3.85401 1.1401 4.32279 1.4573 4.80509C5.08907 10.4214 8.86335 15.9341 13.9386 20.4461C19.0139 24.958 24.6362 28.6632 31.3757 30.2002C36.5659 31.3947 40.3448 34.1939 43.4479 38.3137C45.7465 41.3292 48.3439 44.0923 51.6722 46.1162C53.8007 47.4098 55.8097 48.9108 57.837 50.3081C56.1385 50.8873 54.2902 50.8873 52.5917 50.3081C50.2905 49.5222 48.0619 48.545 45.9304 47.3873C42.7721 45.6474 40.3448 43.0962 38.1152 40.279C36.6073 38.3723 34.2122 37.5069 31.8722 36.7226C27.7347 35.3388 23.3031 34.5229 19.6299 32.0213C16.4901 29.8757 13.1479 28.0096 10.4816 25.242C6.10504 20.6804 2.37214 15.7763 0.919434 9.53344C0.459717 7.56367 0.289622 5.52629 0 3.51595L0.482703 3.37622Z" fill="url(#paint1_linear_614_180)"/>
<path d="M0.611424 16.7139C1.31479 18.3095 1.90323 19.9683 2.7583 21.4918C5.42466 26.3193 8.43121 30.9575 12.1825 35.0142C14.9616 37.9953 18.5171 40.177 22.4664 41.3247C25.2846 42.1043 28.1436 42.7348 31.0309 43.2134C33.5272 43.6641 35.5086 44.7639 36.9613 46.8554C38.8415 49.5599 40.8275 52.1832 42.8548 54.9689C42.09 55.0324 41.3211 55.0324 40.5563 54.9689C33.0445 53.7203 25.62 52.0931 18.6829 48.9243C12.063 45.8998 7.83358 40.6711 5.12125 34.1173C3.22164 29.5034 1.78363 24.7195 0.827491 19.833C0.625215 18.8414 0.560855 17.8047 0.459717 16.777L0.611424 16.7139Z" fill="url(#paint2_linear_614_180)"/>
<path d="M66.3832 7.83863C65.9648 8.85732 65.5649 9.88052 65.1236 10.8857C63.6617 14.2257 62.7744 17.7235 62.9675 21.3431C63.0916 23.7365 63.7582 26.103 64.2087 28.4784C64.8523 31.868 66.5717 34.8385 68.1255 37.8585C68.442 38.4532 68.6046 39.115 68.599 39.7858C68.5933 40.4565 68.4196 41.1157 68.0931 41.7052C67.7666 42.2946 67.2974 42.7964 66.7266 43.1663C66.1559 43.5362 65.5012 43.7629 64.8201 43.8264C64.6255 43.7992 64.4386 43.7331 64.2709 43.6324C64.1033 43.5316 63.9585 43.3982 63.8455 43.2404C59.8368 38.0117 56.8119 32.3819 55.9798 25.7469C55.3775 20.9148 56.8992 16.7634 59.9058 13.1259C61.3493 11.3725 63.2295 9.97067 64.9351 8.42461C65.3121 8.13082 65.7188 7.87557 66.1487 7.66284L66.3832 7.83863Z" fill="url(#paint3_linear_614_180)"/>
<path d="M57.5842 75.0001C53.1709 74.8243 48.8496 74.7071 45.5258 71.1552C43.6344 69.1646 41.5735 67.3354 39.3656 65.6876C37.067 63.9432 34.2443 63.5466 31.4079 63.4339C25.7878 63.1766 20.2005 64.4049 15.2304 66.9903C15.3362 66.2556 15.2764 65.7327 15.4879 65.3631C16.5912 63.4158 18.4163 62.2484 20.3977 61.3559C24.742 59.3997 29.3162 58.2728 34.1156 58.6514C39.692 59.1022 44.0823 61.7075 47.1486 66.3142C49.7506 70.2492 52.8675 73.4991 57.5842 75.0001Z" fill="url(#paint4_linear_614_180)"/>
<defs>
<linearGradient id="paint0_linear_614_180" x1="63.2559" y1="0" x2="63.2559" y2="69.464" gradientUnits="userSpaceOnUse">
<stop stop-color="#1B8698"/>
<stop offset="1" stop-color="#5CB2C9"/>
</linearGradient>
<linearGradient id="paint1_linear_614_180" x1="28.9185" y1="3.37622" x2="28.9185" y2="50.7425" gradientUnits="userSpaceOnUse">
<stop stop-color="#1B8698"/>
<stop offset="1" stop-color="#5CB2C9"/>
</linearGradient>
<linearGradient id="paint2_linear_614_180" x1="21.6573" y1="16.7139" x2="21.6573" y2="55.0165" gradientUnits="userSpaceOnUse">
<stop stop-color="#1B8698"/>
<stop offset="1" stop-color="#5CB2C9"/>
</linearGradient>
<linearGradient id="paint3_linear_614_180" x1="62.2245" y1="7.66284" x2="62.2245" y2="43.8264" gradientUnits="userSpaceOnUse">
<stop stop-color="#1B8698"/>
<stop offset="1" stop-color="#5CB2C9"/>
</linearGradient>
<linearGradient id="paint4_linear_614_180" x1="36.4073" y1="58.5786" x2="36.4073" y2="75.0001" gradientUnits="userSpaceOnUse">
<stop stop-color="#1B8698"/>
<stop offset="1" stop-color="#5CB2C9"/>
</linearGradient>
</defs>
</svg>
