<svg width="36" height="35" viewBox="0 0 36 35" fill="none" xmlns="http://www.w3.org/2000/svg">
<path d="M26.2982 12.2495H8.79894C8.33483 12.2495 7.88973 12.4338 7.56155 12.762C7.23338 13.0902 7.04901 13.5353 7.04901 13.9994C7.04901 14.4635 7.23338 14.9086 7.56155 15.2368C7.88973 15.5649 8.33483 15.7493 8.79894 15.7493H26.2982C26.7623 15.7493 27.2074 15.5649 27.5355 15.2368C27.8637 14.9086 28.0481 14.4635 28.0481 13.9994C28.0481 13.5353 27.8637 13.0902 27.5355 12.762C27.2074 12.4338 26.7623 12.2495 26.2982 12.2495ZM19.2985 19.2491H8.79894C8.33483 19.2491 7.88973 19.4335 7.56155 19.7617C7.23338 20.0899 7.04901 20.535 7.04901 20.9991C7.04901 21.4632 7.23338 21.9083 7.56155 22.2365C7.88973 22.5646 8.33483 22.749 8.79894 22.749H19.2985C19.7626 22.749 20.2077 22.5646 20.5359 22.2365C20.864 21.9083 21.0484 21.4632 21.0484 20.9991C21.0484 20.535 20.864 20.0899 20.5359 19.7617C20.2077 19.4335 19.7626 19.2491 19.2985 19.2491ZM17.5485 0C15.2505 0 12.975 0.452631 10.8519 1.33205C8.72878 2.21147 6.79968 3.50045 5.17473 5.1254C1.89299 8.40715 0.049324 12.8581 0.049324 17.4992C0.0340259 21.54 1.43315 25.4588 4.00415 28.5762L0.504304 32.0761C0.261489 32.3222 0.0970025 32.6346 0.0316007 32.9741C-0.0338011 33.3136 0.00281194 33.6648 0.13682 33.9835C0.282165 34.2984 0.517785 34.5629 0.813772 34.7436C1.10976 34.9244 1.45276 35.013 1.79925 34.9985H17.5485C22.1896 34.9985 26.6406 33.1548 29.9224 29.873C33.2041 26.5913 35.0478 22.1403 35.0478 17.4992C35.0478 12.8581 33.2041 8.40715 29.9224 5.1254C26.6406 1.84366 22.1896 0 17.5485 0ZM17.5485 31.4986H6.01656L7.64399 29.8712C7.96991 29.5433 8.15285 29.0998 8.15285 28.6375C8.15285 28.1752 7.96991 27.7317 7.64399 27.4038C5.35261 25.115 3.92571 22.1025 3.60638 18.8796C3.28704 15.6566 4.09504 12.4227 5.89271 9.72873C7.69038 7.03476 10.3665 5.0474 13.4651 4.10527C16.5638 3.16314 19.8932 3.32451 22.8862 4.5619C25.8792 5.79928 28.3506 8.03613 29.8793 10.8913C31.408 13.7465 31.8994 17.0434 31.2699 20.2204C30.6404 23.3973 28.9288 26.2577 26.4268 28.3142C23.9249 30.3707 20.7872 31.4961 17.5485 31.4986Z" fill="#212121"/>
</svg>
