<svg width="46" height="35" viewBox="0 0 46 35" fill="currentColor" xmlns="http://www.w3.org/2000/svg">
<path d="M23.2647 17.9529C24.3632 17.002 25.2444 15.8259 25.8483 14.5045C26.4522 13.183 26.7647 11.747 26.7647 10.2941C26.7647 7.56395 25.6801 4.9456 23.7496 3.01508C21.8191 1.08456 19.2008 3.68346e-07 16.4706 3.68346e-07C13.7404 3.68346e-07 11.1221 1.08456 9.19155 3.01508C7.26103 4.9456 6.17647 7.56395 6.17647 10.2941C6.17645 11.747 6.489 13.183 7.09291 14.5045C7.69681 15.8259 8.57793 17.002 9.67647 17.9529C6.7944 19.258 4.34919 21.3655 2.63319 24.0235C0.917196 26.6814 0.00303029 29.7774 0 32.9412C0 33.4872 0.216911 34.0109 0.603015 34.397C0.98912 34.7831 1.51279 35 2.05882 35C2.60486 35 3.12853 34.7831 3.51463 34.397C3.90074 34.0109 4.11765 33.4872 4.11765 32.9412C4.11765 29.665 5.41911 26.523 7.73574 24.2063C10.0524 21.8897 13.1944 20.5882 16.4706 20.5882C19.7468 20.5882 22.8888 21.8897 25.2054 24.2063C27.5221 26.523 28.8235 29.665 28.8235 32.9412C28.8235 33.4872 29.0404 34.0109 29.4265 34.397C29.8126 34.7831 30.3363 35 30.8824 35C31.4284 35 31.9521 34.7831 32.3382 34.397C32.7243 34.0109 32.9412 33.4872 32.9412 32.9412C32.9381 29.7774 32.024 26.6814 30.308 24.0235C28.592 21.3655 26.1468 19.258 23.2647 17.9529ZM16.4706 16.4706C15.249 16.4706 14.0548 16.1083 13.0391 15.4297C12.0234 14.751 11.2318 13.7864 10.7643 12.6578C10.2968 11.5291 10.1745 10.2873 10.4128 9.08915C10.6511 7.89103 11.2394 6.79049 12.1032 5.92669C12.967 5.0629 14.0675 4.47465 15.2656 4.23633C16.4637 3.99801 17.7056 4.12032 18.8342 4.5878C19.9628 5.05529 20.9275 5.84694 21.6061 6.86265C22.2848 7.87837 22.6471 9.07253 22.6471 10.2941C22.6471 11.9322 21.9963 13.5032 20.838 14.6615C19.6797 15.8199 18.1087 16.4706 16.4706 16.4706ZM36.5235 17.1294C37.8411 15.6457 38.7018 13.8128 39.0019 11.8513C39.3021 9.88981 39.029 7.88339 38.2154 6.07353C37.4018 4.26367 36.0825 2.72752 34.4163 1.64999C32.75 0.572456 30.8078 -0.000530353 28.8235 3.68346e-07C28.2775 3.68346e-07 27.7538 0.216911 27.3677 0.603016C26.9816 0.98912 26.7647 1.51279 26.7647 2.05882C26.7647 2.60486 26.9816 3.12853 27.3677 3.51463C27.7538 3.90074 28.2775 4.11765 28.8235 4.11765C30.4616 4.11765 32.0326 4.76838 33.191 5.92669C34.3493 7.08501 35 8.65602 35 10.2941C34.9971 11.3755 34.7103 12.4372 34.1684 13.3729C33.6264 14.3087 32.8483 15.0858 31.9118 15.6265C31.6065 15.8025 31.3516 16.054 31.1713 16.3568C30.9911 16.6596 30.8916 17.0036 30.8824 17.3559C30.8737 17.7054 30.9543 18.0513 31.1164 18.3611C31.2785 18.6709 31.5168 18.9343 31.8088 19.1265L32.6118 19.6618L32.8794 19.8059C35.3611 20.983 37.4548 22.8447 38.9138 25.1718C40.3728 27.499 41.1364 30.1946 41.1147 32.9412C41.1147 33.4872 41.3316 34.0109 41.7177 34.397C42.1038 34.7831 42.6275 35 43.1735 35C43.7196 35 44.2432 34.7831 44.6293 34.397C45.0154 34.0109 45.2323 33.4872 45.2323 32.9412C45.2492 29.7818 44.4579 26.6705 42.9336 23.9031C41.4093 21.1356 39.2028 18.8039 36.5235 17.1294Z" fill="#212121"/>
</svg>
