<svg width="35" height="35" viewBox="0 0 35 35" fill="none" xmlns="http://www.w3.org/2000/svg">
<path d="M24.4806 14.0097H20.9903V10.5194C20.9903 10.0566 20.8064 9.61269 20.4792 9.28541C20.1519 8.95813 19.708 8.77427 19.2451 8.77427H10.5194C10.0566 8.77427 9.61269 8.95813 9.28541 9.28541C8.95813 9.61269 8.77427 10.0566 8.77427 10.5194V19.2451C8.77427 19.708 8.95813 20.1519 9.28541 20.4792C9.61269 20.8064 10.0566 20.9903 10.5194 20.9903H14.0097V24.4806C14.0097 24.9434 14.1936 25.3873 14.5209 25.7146C14.8481 26.0419 15.292 26.2257 15.7549 26.2257H24.4806C24.9434 26.2257 25.3873 26.0419 25.7146 25.7146C26.0419 25.3873 26.2257 24.9434 26.2257 24.4806V15.7549C26.2257 15.292 26.0419 14.8481 25.7146 14.5209C25.3873 14.1936 24.9434 14.0097 24.4806 14.0097ZM14.0097 15.7549V17.5H12.2646V12.2646H17.5V14.0097H15.7549C15.292 14.0097 14.8481 14.1936 14.5209 14.5209C14.1936 14.8481 14.0097 15.292 14.0097 15.7549ZM22.7354 22.7354H17.5V17.5H22.7354V22.7354ZM33.2063 28.4595V6.54048C33.6783 6.27795 34.0829 5.90948 34.3883 5.46405C34.6937 5.01862 34.8916 4.50839 34.9664 3.97351C35.0412 3.43863 34.9908 2.8937 34.8192 2.38159C34.6477 1.86949 34.3596 1.40418 33.9777 1.02228C33.5958 0.640389 33.1305 0.35233 32.6184 0.180773C32.1063 0.00921501 31.5614 -0.0411598 31.0265 0.0336122C30.4916 0.108384 29.9814 0.306263 29.536 0.611677C29.0905 0.917091 28.722 1.32171 28.4595 1.79369H6.54048C6.27795 1.32171 5.90948 0.917091 5.46405 0.611677C5.01862 0.306263 4.50839 0.108384 3.97351 0.0336122C3.43863 -0.0411598 2.8937 0.00921501 2.38159 0.180773C1.86949 0.35233 1.40418 0.640389 1.02228 1.02228C0.640389 1.40418 0.35233 1.86949 0.180773 2.38159C0.00921501 2.8937 -0.0411598 3.43863 0.0336122 3.97351C0.108384 4.50839 0.306263 5.01862 0.611677 5.46405C0.917091 5.90948 1.32171 6.27795 1.79369 6.54048V28.4595C1.32171 28.722 0.917091 29.0905 0.611677 29.536C0.306263 29.9814 0.108384 30.4916 0.0336122 31.0265C-0.0411598 31.5614 0.00921501 32.1063 0.180773 32.6184C0.35233 33.1305 0.640389 33.5958 1.02228 33.9777C1.40418 34.3596 1.86949 34.6477 2.38159 34.8192C2.8937 34.9908 3.43863 35.0412 3.97351 34.9664C4.50839 34.8916 5.01862 34.6937 5.46405 34.3883C5.90948 34.0829 6.27795 33.6783 6.54048 33.2063H28.4595C28.722 33.6783 29.0905 34.0829 29.536 34.3883C29.9814 34.6937 30.4916 34.8916 31.0265 34.9664C31.5614 35.0412 32.1063 34.9908 32.6184 34.8192C33.1305 34.6477 33.5958 34.3596 33.9777 33.9777C34.3596 33.5958 34.6477 33.1305 34.8192 32.6184C34.9908 32.1063 35.0412 31.5614 34.9664 31.0265C34.8916 30.4916 34.6937 29.9814 34.3883 29.536C34.0829 29.0905 33.6783 28.722 33.2063 28.4595ZM29.716 28.4595C29.1912 28.7569 28.7569 29.1912 28.4595 29.716H6.54048C6.24306 29.1912 5.8088 28.7569 5.28398 28.4595V6.54048C5.8088 6.24306 6.24306 5.8088 6.54048 5.28398H28.4595C28.7569 5.8088 29.1912 6.24306 29.716 6.54048V28.4595Z" fill="#212121"/>
</svg>
