<svg width="76" height="76" viewBox="0 0 76 76" fill="none" xmlns="http://www.w3.org/2000/svg">
<rect width="76" height="76" rx="10" fill="#FBD13B"/>
<path d="M52.6122 34.4874C51.3072 34.2513 49.9833 34.1359 48.6571 34.1427C47.8951 34.1427 47.1513 34.1427 46.4074 34.2878C45.4814 33.0521 44.2993 32.031 42.9422 31.2943C44.1079 30.0211 44.7551 28.3578 44.7564 26.6316C44.7564 24.7743 44.0186 22.993 42.7053 21.6797C41.392 20.3664 39.6107 19.6285 37.7534 19.6285C35.896 19.6285 34.1148 20.3664 32.8015 21.6797C31.4881 22.993 30.7503 24.7743 30.7503 26.6316C30.7516 28.3578 31.3988 30.0211 32.5646 31.2943C31.2155 32.0348 30.0353 33.0481 29.0993 34.2697C28.3918 34.1427 27.6479 34.1427 26.8859 34.1427C25.5586 34.1478 24.2347 34.2754 22.9308 34.5237C22.5082 34.601 22.1267 34.8257 21.8542 35.158C21.5818 35.4902 21.4361 35.9083 21.4431 36.3379V51.3056C21.4427 51.5722 21.501 51.8355 21.6139 52.077C21.7268 52.3184 21.8914 52.532 22.0962 52.7026C22.2998 52.8742 22.5385 52.9989 22.7956 53.0679C23.0527 53.1369 23.3219 53.1485 23.5839 53.1018C24.6696 52.8653 25.7752 52.7317 26.8859 52.7026C30.4003 52.6988 33.8385 53.7271 36.7737 55.6599L37.0095 55.7506C37.2502 55.855 37.5092 55.9105 37.7715 55.9139C37.9447 55.9117 38.1163 55.8811 38.2795 55.8232H38.4065L38.6424 55.7325C41.6055 53.75 45.092 52.6952 48.6571 52.7026C49.7656 52.7078 50.8711 52.8171 51.9591 53.0292C52.2212 53.0759 52.4903 53.0643 52.7474 52.9953C53.0045 52.9264 53.2433 52.8017 53.4468 52.6301C53.6516 52.4595 53.8163 52.2459 53.9292 52.0044C54.0421 51.763 54.1003 51.4996 54.0999 51.2331V36.2654C54.0984 35.842 53.9488 35.4325 53.6771 35.1078C53.4054 34.7831 53.0287 34.5636 52.6122 34.4874ZM37.7715 23.2571C38.6214 23.3195 39.4162 23.7012 39.9963 24.3255C40.5764 24.9497 40.8988 25.7704 40.8988 26.6225C40.8988 27.4747 40.5764 28.2953 39.9963 28.9196C39.4162 29.5439 38.6214 29.9256 37.7715 29.988C36.9216 29.9256 36.1268 29.5439 35.5467 28.9196C34.9667 28.2953 34.6442 27.4747 34.6442 26.6225C34.6442 25.7704 34.9667 24.9497 35.5467 24.3255C36.1268 23.7012 36.9216 23.3195 37.7715 23.2571ZM35.9572 51.0698C33.1137 49.7554 30.0185 49.0745 26.8859 49.0741C26.2872 49.0741 25.6885 49.0741 25.0716 49.1648V37.7712C26.593 37.601 28.1302 37.6315 29.6436 37.8619H29.8432C32.005 38.2592 34.0767 39.0461 35.9572 40.1842V51.0698ZM37.7715 37.0455C36.9648 36.5801 36.1284 36.168 35.2678 35.8118H35.159C34.5603 35.5759 33.9616 35.3401 33.3447 35.1587C34.6044 34.1561 36.1617 33.6008 37.7715 33.5803C39.3771 33.5904 40.9339 34.1328 42.1983 35.1224C40.6582 35.6032 39.1741 36.2479 37.7715 37.0455ZM50.4714 49.1648C46.7461 48.7905 42.9883 49.4168 39.5858 50.9791V40.0935C41.4697 38.9846 43.5427 38.2341 45.6999 37.8801H46.0627C47.5213 37.6529 49.0033 37.6163 50.4714 37.7712V49.1648Z" fill="white"/>
</svg>
