<svg width="76" height="76" viewBox="0 0 76 76" fill="none" xmlns="http://www.w3.org/2000/svg">
<rect width="76" height="76" rx="10" fill="#FF7208"/>
<path d="M54.0977 30.5134C54.0914 29.8181 53.8854 29.1393 53.5043 28.5578C53.1232 27.9762 52.583 27.5165 51.948 27.2331C51.3131 26.9498 50.6101 26.8549 49.9228 26.9597C49.2354 27.0645 48.5927 27.3645 48.071 27.8242C47.5493 28.2838 47.1706 28.8837 46.9801 29.5523C46.7896 30.221 46.7952 30.9303 46.9963 31.5959C47.1974 32.2615 47.5854 32.8553 48.1143 33.3066C48.6432 33.7579 49.2907 34.0478 49.9796 34.1417C50.3608 35.1939 50.521 36.3133 50.4504 37.4302C50.3798 38.547 50.0798 39.6374 49.5692 40.6332C49.0585 41.629 48.3481 42.5088 47.4823 43.2179C46.6166 43.927 45.614 44.4501 44.5371 44.7546C44.0586 43.6533 43.2294 42.7412 42.1787 42.1603C43.6823 40.2948 44.6275 38.042 44.9051 35.662C45.1827 33.2821 44.7813 30.8722 43.7473 28.7107C42.7134 26.5493 41.089 24.7244 39.0618 23.447C37.0347 22.1696 34.6875 21.4917 32.2915 21.4917C29.8954 21.4917 27.5482 22.1696 25.5211 23.447C23.494 24.7244 21.8696 26.5493 20.8356 28.7107C19.8016 30.8722 19.4002 33.2821 19.6778 35.662C19.9554 38.042 20.9006 40.2948 22.4043 42.1603C21.5715 42.6283 20.8767 43.3072 20.3894 44.1288C19.9022 44.9504 19.6398 45.8857 19.6286 46.8409V48.655C19.6286 50.0985 20.202 51.4828 21.2226 52.5034C22.2433 53.5241 23.6276 54.0975 25.0711 54.0975H39.5844C41.0279 54.0975 42.4122 53.5241 43.4328 52.5034C44.4535 51.4828 45.0269 50.0985 45.0269 48.655V48.3103C46.6553 47.9301 48.1836 47.2062 49.5095 46.1874C50.8354 45.1685 51.9283 43.8781 52.715 42.4026C53.5018 40.927 53.9641 39.3004 54.0712 37.6317C54.1782 35.963 53.9275 34.2906 53.3358 32.7266C53.8273 32.0933 54.0952 31.315 54.0977 30.5134ZM41.3986 48.655C41.3986 49.1362 41.2074 49.5976 40.8672 49.9378C40.527 50.278 40.0656 50.4692 39.5844 50.4692H25.0711C24.5899 50.4692 24.1285 50.278 23.7883 49.9378C23.448 49.5976 23.2569 49.1362 23.2569 48.655V46.8409C23.2569 46.3597 23.448 45.8983 23.7883 45.558C24.1285 45.2178 24.5899 45.0267 25.0711 45.0267H25.8149C27.7797 46.2143 30.0319 46.8421 32.3277 46.8421C34.6236 46.8421 36.8758 46.2143 38.8406 45.0267H39.5844C40.0656 45.0267 40.527 45.2178 40.8672 45.558C41.2074 45.8983 41.3986 46.3597 41.3986 46.8409V48.655ZM32.3277 43.2125C30.5337 43.2125 28.7799 42.6805 27.2883 41.6838C25.7966 40.6871 24.6339 39.2704 23.9474 37.6129C23.2608 35.9555 23.0812 34.1316 23.4312 32.3721C23.7812 30.6125 24.6451 28.9962 25.9137 27.7276C27.1823 26.4591 28.7985 25.5951 30.5581 25.2451C32.3177 24.8951 34.1415 25.0748 35.799 25.7613C37.4565 26.4479 38.8731 27.6105 39.8699 29.1022C40.8666 30.5939 41.3986 32.3476 41.3986 34.1417C41.3986 35.3329 41.164 36.5124 40.7081 37.6129C40.2522 38.7135 39.5841 39.7134 38.7418 40.5557C37.8995 41.398 36.8995 42.0662 35.799 42.522C34.6985 42.9779 33.5189 43.2125 32.3277 43.2125ZM32.3277 32.3275C31.9689 32.3275 31.6182 32.4339 31.3198 32.6333C31.0215 32.8326 30.789 33.1159 30.6517 33.4474C30.5144 33.7789 30.4784 34.1437 30.5484 34.4956C30.6184 34.8475 30.7912 35.1708 31.0449 35.4245C31.2986 35.6782 31.6219 35.851 31.9738 35.921C32.3257 35.991 32.6905 35.9551 33.022 35.8178C33.3535 35.6804 33.6368 35.4479 33.8362 35.1496C34.0355 34.8512 34.1419 34.5005 34.1419 34.1417C34.1419 33.6605 33.9508 33.1991 33.6106 32.8589C33.2703 32.5187 32.8089 32.3275 32.3277 32.3275Z" fill="white"/>
</svg>
