<?xml version="1.0" encoding="utf-8"?>
<!-- Generator: Adobe Illustrator 24.2.2, SVG Export Plug-In . SVG Version: 6.00 Build 0)  -->
<svg version="1.1" id="Capa_1" xmlns="http://www.w3.org/2000/svg" xmlns:xlink="http://www.w3.org/1999/xlink" x="0px" y="0px"
	 viewBox="0 0 150 150" style="enable-background:new 0 0 150 150;" xml:space="preserve">
<style type="text/css">
	.st0{fill:#FFFFFF;}
	.st1{fill:#1D1D1B;}
</style>
<g id="layer1" transform="translate(-193.633,-739.48031)">
	<polygon id="polygon2989" class="st0" points="333.4,741.4 321.6,873.6 268.6,888.3 215.7,873.6 203.9,741.4 	"/>
	<polygon class="st1" points="268.6,768.4 268.6,768.4 228,768.4 229.5,784.7 268.6,784.7 268.6,784.7 291.4,784.7 289.9,801.3 
		268.6,801.3 268.6,801.3 230.9,801.3 232.4,817.5 268.6,817.5 268.6,817.5 288.5,817.5 286.7,838.5 268.6,843.4 268.6,843.4 
		268.6,843.4 250.5,838.5 249.4,825.6 240.6,825.6 233.1,825.6 235.3,851 268.6,860.3 268.6,860.2 268.6,860.2 301.8,851 
		302.1,848.3 305.9,805.6 306.3,801.3 309.2,768.4 	"/>
</g>
</svg>
