<svg width="60" height="39" viewBox="0 0 60 39" fill="none" xmlns="http://www.w3.org/2000/svg">
<rect y="0.319824" width="4.72441" height="4.72441" rx="2.3622" fill="#FBD13B"/>
<rect x="6.1416" y="0.319824" width="4.72441" height="4.72441" rx="2.3622" fill="#FBD13B"/>
<rect x="12.2832" y="0.319824" width="4.72441" height="4.72441" rx="2.3622" fill="#FBD13B"/>
<rect x="18.4258" y="0.319824" width="4.72441" height="4.72441" rx="2.3622" fill="#FBD13B"/>
<rect x="24.5674" y="0.319824" width="4.72441" height="4.72441" rx="2.3622" fill="#FBD13B"/>
<rect x="30.709" y="0.319824" width="4.72441" height="4.72441" rx="2.3622" fill="#FBD13B"/>
<rect x="36.8506" y="0.319824" width="4.72441" height="4.72441" rx="2.3622" fill="#FBD13B"/>
<rect x="42.9912" y="0.319824" width="4.72441" height="4.72441" rx="2.3622" fill="#FBD13B"/>
<rect x="49.1348" y="0.319824" width="4.72441" height="4.72441" rx="2.3622" fill="#FBD13B"/>
<rect x="55.2754" y="0.319824" width="4.72441" height="4.72441" rx="2.3622" fill="#FBD13B"/>
<rect x="5.92578" y="6.98682" width="4.72441" height="4.72441" rx="2.3622" fill="#FBD13B"/>
<rect x="12.0674" y="6.98682" width="4.72441" height="4.72441" rx="2.3622" fill="#FBD13B"/>
<rect x="18.209" y="6.98682" width="4.72441" height="4.72441" rx="2.3622" fill="#FBD13B"/>
<rect x="24.3506" y="6.98682" width="4.72441" height="4.72441" rx="2.3622" fill="#FBD13B"/>
<rect x="30.4932" y="6.98682" width="4.72441" height="4.72441" rx="2.3622" fill="#FBD13B"/>
<rect x="36.6348" y="6.98682" width="4.72441" height="4.72441" rx="2.3622" fill="#FBD13B"/>
<rect x="42.7764" y="6.98682" width="4.72441" height="4.72441" rx="2.3622" fill="#FBD13B"/>
<rect x="48.917" y="6.98682" width="4.72441" height="4.72441" rx="2.3622" fill="#FBD13B"/>
<rect x="12.5918" y="13.6533" width="4.72441" height="4.72441" rx="2.3622" fill="#FBD13B"/>
<rect x="18.7344" y="13.6533" width="4.72441" height="4.72441" rx="2.3622" fill="#FBD13B"/>
<rect x="24.876" y="13.6533" width="4.72441" height="4.72441" rx="2.3622" fill="#FBD13B"/>
<rect x="31.0176" y="13.6533" width="4.72441" height="4.72441" rx="2.3622" fill="#FBD13B"/>
<rect x="37.1592" y="13.6533" width="4.72441" height="4.72441" rx="2.3622" fill="#FBD13B"/>
<rect x="43.3008" y="13.6533" width="4.72441" height="4.72441" rx="2.3622" fill="#FBD13B"/>
<rect x="18.5186" y="20.3198" width="4.72441" height="4.72441" rx="2.3622" fill="#FBD13B"/>
<rect x="24.6602" y="20.3198" width="4.72441" height="4.72441" rx="2.3622" fill="#FBD13B"/>
<rect x="30.8018" y="20.3198" width="4.72441" height="4.72441" rx="2.3622" fill="#FBD13B"/>
<rect x="36.9443" y="20.3198" width="4.72441" height="4.72441" rx="2.3622" fill="#FBD13B"/>
<rect x="24.4443" y="26.9868" width="4.72441" height="4.72441" rx="2.3622" fill="#FBD13B"/>
<rect x="30.5859" y="26.9868" width="4.72441" height="4.72441" rx="2.3622" fill="#FBD13B"/>
<rect x="27.4082" y="33.6533" width="4.72441" height="4.72441" rx="2.3622" fill="#FBD13B"/>
</svg>
