<?xml version="1.0" encoding="utf-8"?>
<!-- Generator: Adobe Illustrator 24.2.2, SVG Export Plug-In . SVG Version: 6.00 Build 0)  -->
<svg version="1.1" id="Capa_1" xmlns="http://www.w3.org/2000/svg" xmlns:xlink="http://www.w3.org/1999/xlink" x="0px" y="0px"
	 viewBox="0 0 150 150" style="enable-background:new 0 0 150 150;" xml:space="preserve">
<style type="text/css">
	.st0{fill:#FFFFFF;}
	.st1{fill:#1D1D1B;}
</style>
<path class="st0" d="M22.8,134.8L11,2.8h129.3l-11.8,132l-53,14.7L22.8,134.8z"/>
<polygon class="st1" points="75.7,29.8 75.6,29.8 75.6,29.8 35.1,29.8 39.4,78.7 75.6,78.7 75.7,78.7 95.6,78.7 93.7,99.7 
	75.7,104.6 75.7,104.5 75.6,104.5 57.6,99.7 56.4,86.8 40.2,86.8 42.4,112.2 75.6,121.3 75.7,121.3 75.7,121.4 108.9,112.2 
	113.3,62.5 75.7,62.5 75.7,62.5 54.3,62.5 52.8,45.9 75.7,45.9 75.7,45.9 114.7,45.9 115,42.3 115.8,34.1 116.2,29.8 "/>
</svg>
