<?xml version="1.0" encoding="utf-8"?>
<!-- Generator: Adobe Illustrator 24.2.2, SVG Export Plug-In . SVG Version: 6.00 Build 0)  -->
<svg version="1.1" id="Capa_1" xmlns="http://www.w3.org/2000/svg" xmlns:xlink="http://www.w3.org/1999/xlink" x="0px" y="0px"
	 viewBox="0 0 150 150" style="enable-background:new 0 0 150 150;" xml:space="preserve">
<style type="text/css">
	.st0{fill:none;}
	.st1{fill:#FFFFFF;}
</style>
<g>
	<g>
		<rect x="11.2" y="1.9" class="st0" width="127.5" height="146.1"/>
		<path d="M32.8,106.1l0-15.4c0,0,15.7,4.5,24.6,6.8l0.1-67.3h12.7v86.1L32.8,106.1L32.8,106.1z"/>
		<path class="st1" d="M11.2,1.9l11.8,131.3L74.9,148l52.1-14.8L138.8,2L11.2,1.9z M70.2,116.2l-37.4-10.2l0-15.4l24.6,6.8l0.1-67.3
			h12.7V116.2z"/>
	</g>
	<polygon points="121,30.1 119.8,45.5 92.8,45.5 92.8,68.1 118.2,65.2 114.7,107.2 80.4,116.2 80.1,101.1 105,94.4 105.5,81.9 
		80.6,86.2 80.3,30.3 	"/>
</g>
</svg>
