<svg xmlns="http://www.w3.org/2000/svg" xmlns:xlink="http://www.w3.org/1999/xlink" viewBox="0 0 524.1 159.08"><defs><style>.cls-1{fill:#fff;}.cls-2{fill:url(#Degradado_sin_nombre_291);}.cls-3{fill:url(#Degradado_sin_nombre_291-2);}.cls-4{fill:url(#Degradado_sin_nombre_291-3);}.cls-5{fill:url(#Degradado_sin_nombre_291-4);}.cls-6{fill:url(#Degradado_sin_nombre_291-5);}.cls-7{fill:url(#Degradado_sin_nombre_291-6);}.cls-8{fill:url(#Degradado_sin_nombre_291-7);}.cls-9{fill:url(#Degradado_sin_nombre_291-8);}</style><linearGradient id="Degradado_sin_nombre_291" x1="-4.52" y1="34.74" x2="419.05" y2="34.74" gradientUnits="userSpaceOnUse"><stop offset="0" stop-color="#ff7208"/><stop offset="0.29" stop-color="#fbb03b"/><stop offset="0.59" stop-color="#fbe23b"/><stop offset="0.94" stop-color="#6be2cd"/></linearGradient><linearGradient id="Degradado_sin_nombre_291-2" x1="-9.63" y1="43.63" x2="451.64" y2="43.63" xlink:href="#Degradado_sin_nombre_291"/><linearGradient id="Degradado_sin_nombre_291-3" x1="-9.05" y1="43.63" x2="452.22" y2="43.63" xlink:href="#Degradado_sin_nombre_291"/><linearGradient id="Degradado_sin_nombre_291-4" x1="17.78" y1="35.36" x2="426.92" y2="35.36" xlink:href="#Degradado_sin_nombre_291"/><linearGradient id="Degradado_sin_nombre_291-5" x1="4.16" y1="43.63" x2="443.72" y2="43.63" xlink:href="#Degradado_sin_nombre_291"/><linearGradient id="Degradado_sin_nombre_291-6" x1="10.66" y1="43.63" x2="445.5" y2="43.63" xlink:href="#Degradado_sin_nombre_291"/><linearGradient id="Degradado_sin_nombre_291-7" x1="20.45" y1="43.02" x2="451.83" y2="43.02" xlink:href="#Degradado_sin_nombre_291"/><linearGradient id="Degradado_sin_nombre_291-8" x1="21.6" y1="52.73" x2="458.75" y2="52.73" xlink:href="#Degradado_sin_nombre_291"/></defs><g id="Capa_2" data-name="Capa 2"><g id="Capa_1-2" data-name="Capa 1"><path class="cls-1" d="M295.45,144.13c-2.47-.68-11.18,1.87-10.29-2.17q3.88-21.6,7.67-43.22c.21-1.23.57-2.21,2-2.18,7.88.52,16.59-1.58,23.9,2.12,3.22,1.95,3.89,5,3.31,8.4q-2.25,13.4-4.72,26.75C315.92,143.46,303.67,144.59,295.45,144.13Zm2.11-5.4c5.59.09,13.23.28,14-6.9,1.4-7.81,2.84-15.61,4.18-23.43.6-3.49-.48-5.06-4-6-3.88-.79-7.87-.13-11.8-.4-1.32,0-1.75.38-2,1.71-.92,5.69-2,11.36-3,17-1,5.36-1.84,10.73-2.86,16.07C291.27,140.13,295.72,138.24,297.56,138.73Z"/><path class="cls-1" d="M428.35,141.34c-6.84,4.22-22.7,7.56-20.92-5.33,2.73-9.34,0-26.16,13.13-27.26a17.43,17.43,0,0,1,12.63,3.78c1.19-1.26.26-3.59,2.79-3.37,3,0,3.1,0,2.59,3-2.2,12.55-4.26,25.13-6.62,37.65-2.11,11.57-15.72,8.91-24.42,9.22-.8,0-1.37-.28-1.14-1.13.32-1.2-.24-3,1.83-3.18,4.64-.35,9.34.48,13.95-.48C428.16,152.91,427.07,146.26,428.35,141.34Zm-10.17-.94c14.24-1.19,11.25-7.6,13.58-18.75,2.92-5.61-4.06-8.05-8.59-8.35-9.83-.66-7.86,11.9-9.87,18.42C412.28,136.37,412.11,140.84,418.18,140.4Z"/><path class="cls-1" d="M339.91,128.14c-2.23.56-9.71-1.38-9.94,1.32,0,3.15-3.09,8.57,1.45,9.67,4.14.92,11.17,1.25,12.08-4.17.09-3,6.31-4.45,5.86-.78-.51,10.22-13,12-21,9.8-10.79-2.58-2.39-18.47-2.28-26.08.53-11.74,28.84-13.72,26.13-.12C350.49,129.61,351.72,128.27,339.91,128.14Zm-1.56-4.94c4.55-.17,7.71,1.23,8-4.52,1.7-7.22-13.51-6.49-14.33-.68C329.87,125.69,332.65,122.6,338.35,123.2Z"/><path class="cls-1" d="M451.08,112.57c6.84-4.87,23.16-7.43,21,5.48-1.45,8.12-2.85,16.24-4.27,24.35-.29,1.69-3.62,3-5,1.87-.53-4.52,1.62-9.68,2-14.4-.13-4.78,5.47-14.36-1-16.32-4.35-.85-12.65.77-13.92,5.58-1.28,7.8-2.79,15.58-4.07,23.39-.28,1.68-1,1.95-2.48,1.92-2.9-.07-2.95,0-2.46-2.82q3.31-19,6.67-38c1.37-3.55-.83-10.22,5.39-8.93,1.7.26,1,1.46.83,2.28C453,102,452,107.09,451.08,112.57Z"/><path class="cls-1" d="M512.52,108.79c6-.93,14.17,3.49,10.79,10.31-.86,1.61-2.65.64-4,.69-2.36-.56,2.46-6.54-5.13-7.13-4.88-.87-12.41,1.06-10.83,7.38,2.37,4,8.56,3.76,12.49,5.78,10.44,3,5.29,17.91-4.09,18.69-6.78,1.79-20.14.38-16.74-9.57.49-1.49,1.73-.9,2.67-.94,2.32-.09,2.32,0,1.86,2.28-1.62,7.83,19.83,6.54,16.67-3.78-3.11-3.51-9-3.65-13.1-5.74-3.85-1.39-5-3.87-4.66-7.9C499.21,110.3,506.37,108.66,512.52,108.79Z"/><path class="cls-1" d="M364.82,134.26c4-7.76,7.83-15.08,11.63-22.41,1.37-2.64,2.7-3.3,5.54-2.64,1.53.35,1.14,1.31.65,2.26-5.19,10.16-10.52,20.25-15.81,30.36-1.08,2.57-6.93,4-7,.3-1.7-10.17-3.33-20.35-5-30.52-.6-2.69,1.87-2.42,3.71-2.44,1.69-.25,2.37.58,2.61,2.14C362.35,119.1,363.49,126.41,364.82,134.26Z"/><path class="cls-1" d="M490.75,113.6c-4.08,0-4.15,0-4.9,4-1.07,5.58-2.09,11.18-3,16.79-1,4.56,2.76,5.87,6.71,5.71,2.87.13,3.26.73,2.25,3.42-1.51,2.08-8.11.66-10.49,0-3.25-1.28-4.66-4.18-4-7.84,1.27-6.87,2.51-13.75,3.79-20.62.17-.92,0-1.4-1-1.37a4.89,4.89,0,0,1-1.38,0c-.86-.22-2.31.76-2.41-1.06-.14-2.32.42-2.91,2.59-3,4.15.59,3.35-2.81,4.07-5.78s.63-2.83,3.68-3c4.82-.52-1.81,8.73,2.11,8.66,1.39.31,7.55-1,7.25.9C496.38,114.38,493.77,113.62,490.75,113.6Z"/><path class="cls-1" d="M384.49,144.41c-3.06,0-3.06-.09-2.54-2.93q2.31-12.73,4.49-25.49c1.11-6.36,2.16-12.74,3.26-19.1.34-2,3.07-3.12,4.85-2.09.63.36.64.91.52,1.53q-2.86,16-5.73,32C388.05,131.16,388.22,146.09,384.49,144.41Z"/><path class="cls-1" d="M396.72,144.42c-2.52,0-2.68-.27-2.27-2.59q2.76-15.35,5.42-30.7c.34-1.94,1-2.32,4.07-1.95,1.94.23,1.14,1.71,1,2.58-1.75,10.36-3.65,20.7-5.38,31.06C399.2,144.94,397.77,144.24,396.72,144.42Z"/><path class="cls-1" d="M404.17,103.65c-3,0-3,0-2.45-2.84a39.4,39.4,0,0,1,.95-5c.74-2.12,2.71-1.09,4.11-1.07s1,1.21.77,2.12C406.59,99,407.71,104.55,404.17,103.65Z"/><path class="cls-2" d="M68.46,50.17c0,12.77-8.68,19.31-25.44,19.31H0V0H41.59C57.84,0,66.21,6.33,66.21,18.7c0,7.56-3.57,12.67-10.72,15.12C64.17,36.17,68.46,41.59,68.46,50.17ZM15.94,27.69H41.28c6.13,0,9.1-2.25,9.1-6.85,0-4.8-3-7.15-8.89-7.15H15.94ZM52.22,48.54c0-4.81-3.17-7.16-9.51-7.16H15.94V55.79h27C49.15,55.79,52.22,53.44,52.22,48.54Z"/><path class="cls-3" d="M74.08,43.63c0-16.25,11.86-27.08,29.64-27.08s29.63,10.83,29.63,27.08S121.5,70.71,103.72,70.71,74.08,59.88,74.08,43.63Zm43.64,0c0-8.79-5.42-14.41-14-14.41s-14,5.62-14,14.41S95.13,58,103.72,58,117.72,52.42,117.72,43.63Z"/><path class="cls-4" d="M138.05,43.63c0-16.25,11.85-27.08,29.63-27.08s29.63,10.83,29.63,27.08-11.85,27.08-29.63,27.08S138.05,59.88,138.05,43.63Zm43.63,0c0-8.79-5.41-14.41-14-14.41s-14,5.62-14,14.41S159.1,58,167.68,58,181.68,52.42,181.68,43.63Z"/><path class="cls-5" d="M247,67.54a32.83,32.83,0,0,1-15,3.17c-13.29,0-19.73-5.31-19.73-16.25V29.33H199.77V17.78h12.46V0h15.33V17.78h18.09V29.33H227.56V51.19c0,4.91,2.15,6.85,7.46,6.85a20.48,20.48,0,0,0,9.3-2.25Z"/><path class="cls-6" d="M251,43.84C251,27,263,16.55,281,16.55c7.67,0,14.51,1.74,20,5.42l-4.29,11.55a27.14,27.14,0,0,0-14.61-4.3c-9.51,0-15.53,5.62-15.53,14.51S272.62,58,282.84,58a27.42,27.42,0,0,0,15.33-4.7l4.7,11.75c-6,3.78-13.08,5.62-21.15,5.62C262.61,70.71,251,60.39,251,43.84Z"/><path class="cls-7" d="M361,40.87V69.48H345.69V60.29c-4.5,6.64-12.06,10.42-20.85,10.42-11.44,0-18.5-6.23-18.5-16.45,0-10.53,7.36-16.45,20.24-16.45,6.95,0,14.2,1.73,19.11,4.49v-.51c0-8.68-4.81-12.77-14.92-12.77a32.5,32.5,0,0,0-17.07,4.8l-5.11-11c7.05-4.3,14.82-6.24,24.73-6.24C352.63,16.55,361,23.91,361,40.87Zm-15.32,10a37.28,37.28,0,0,0-14.41-3.07c-6.13,0-9.3,2-9.3,5.83,0,3.57,2.86,5.62,8.17,5.62a20.49,20.49,0,0,0,15.54-7.16Z"/><path class="cls-8" d="M456.45,35.76V69.48H441.12V38.93c0-6.64-2.65-9.71-8.27-9.71-4.91,0-8.69,2.35-11.45,6.14V69.48H406.07V38.93c0-6.54-2.65-9.71-8.07-9.71-4.7,0-8.58,2.35-11.65,7V69.48H371V17.78h15.32V27c4.6-6.95,10.53-10.43,18-10.43,7.87,0,13.28,3.78,15.63,10.43,4.8-7,11.14-10.43,19-10.43C450.42,16.55,456.45,23.71,456.45,35.76Z"/><path class="cls-9" d="M524.1,43.63c0,16.15-9.51,27.08-23.3,27.08-7.87,0-14.2-3.58-18.6-10.42V88.9H466.87V17.78H482.2V27c4.4-6.85,10.73-10.43,18.6-10.43C514.59,16.55,524.1,27.49,524.1,43.63Zm-15.64,0c0-8.89-4.8-14.41-12.57-14.41a17.15,17.15,0,0,0-13.69,7V51.09A17.12,17.12,0,0,0,495.89,58C503.66,58,508.46,52.52,508.46,43.63Z"/><path class="cls-1" d="M248.91,126.13c0,5-3.4,7.56-10,7.56H222.11v-27.2h16.28c6.36,0,9.64,2.48,9.64,7.32a5.75,5.75,0,0,1-4.2,5.92C247.23,120.65,248.91,122.77,248.91,126.13Zm-20.56-8.8h9.92c2.4,0,3.56-.88,3.56-2.68s-1.16-2.8-3.48-2.8h-10Zm14.2,8.16c0-1.88-1.24-2.8-3.72-2.8H228.35v5.64h10.56C241.35,128.33,242.55,127.41,242.55,125.49Z"/><path class="cls-1" d="M273.67,113.45l-9.16,22c-1.88,4.52-4.36,6.36-8.72,6.36a12.45,12.45,0,0,1-4.84-.88l1.16-4.64a7.5,7.5,0,0,0,3,.6c2.12,0,3.24-.88,4.28-3.4l.16-.4-9.36-19.6h6.6l5.72,12.88,5-12.88Z"/></g></g></svg>