<?xml version="1.0" encoding="utf-8"?>
<!-- Generator: Adobe Illustrator 24.2.2, SVG Export Plug-In . SVG Version: 6.00 Build 0)  -->
<svg version="1.1" id="Capa_1" xmlns="http://www.w3.org/2000/svg" xmlns:xlink="http://www.w3.org/1999/xlink" x="0px" y="0px"
	 viewBox="0 0 150 150" style="enable-background:new 0 0 150 150;" xml:space="preserve">
<style type="text/css">
	.st0{fill:#FFFFFF;}
	.st1{fill:#1D1D1B;}
</style>
<g>
	<circle class="st0" cx="75" cy="75" r="71.9"/>
	<path class="st1" d="M19.7,86.8c-0.8,0-1.7-0.3-2.2-0.9c-0.6-0.6-0.9-1.4-0.9-2.2c0-0.8,0.3-1.7,0.9-2.2c0.6-0.6,1.4-1,2.2-1
		c0.9,0,1.7,0.3,2.2,1c0.6,0.6,0.9,1.4,0.9,2.2c0,0.8-0.3,1.7-0.9,2.2C21.4,86.5,20.5,86.8,19.7,86.8z"/>
	<path class="st1" d="M64.4,86.2h-5.9L37.4,53.6c-0.5-0.8-1-1.7-1.3-2.6h-0.2c0.2,1.9,0.3,3.7,0.2,5.6v29.6h-4.8v-41h6.2l20.5,32.1
		c0.9,1.3,1.4,2.2,1.7,2.7h0.1c-0.2-2-0.3-4-0.3-6V45.3h4.8V86.2z"/>
	<path class="st1" d="M96.8,86.2H75v-41h20.8v4.3H79.9v13.6h14.8v4.3H79.9v14.2h16.9L96.8,86.2z"/>
	<path class="st1" d="M129,49.6H117v36.6h-4.8V49.6h-11.8v-4.3H129V49.6z"/>
	<path class="st1" d="M61.8,114.1c-1.6,0.8-3.4,1.2-5.2,1.1c-2.4,0.1-4.8-0.8-6.5-2.6c-1.7-1.8-2.5-4.3-2.4-6.7
		c-0.1-2.7,0.9-5.4,2.7-7.3c1.8-1.9,4.3-2.9,6.9-2.8c1.5-0.1,3.1,0.2,4.5,0.8v2.2c-1.4-0.8-2.9-1.1-4.5-1.1c-2-0.1-3.9,0.8-5.3,2.2
		c-1.4,1.6-2.1,3.7-2,5.8c-0.1,2,0.6,4,1.9,5.5c1.3,1.4,3.1,2.1,5,2c1.7,0,3.4-0.4,4.9-1.3L61.8,114.1z"/>
	<path class="st1" d="M71,115.2c-1.8,0.1-3.6-0.7-4.8-2c-1.2-1.4-1.9-3.2-1.8-5c-0.1-1.9,0.6-3.9,1.9-5.3c1.3-1.3,3.1-2,5-1.9
		c1.8-0.1,3.5,0.6,4.7,1.9c1.2,1.4,1.8,3.3,1.7,5.1c0.1,1.9-0.6,3.8-1.8,5.2C74.6,114.5,72.8,115.3,71,115.2z M71.1,102.9
		c-1.3-0.1-2.5,0.5-3.3,1.4c-0.9,1.1-1.3,2.5-1.2,3.9c-0.1,1.4,0.4,2.7,1.2,3.8c0.8,0.9,2,1.4,3.3,1.4c1.2,0.1,2.4-0.4,3.2-1.3
		c0.8-1.1,1.2-2.5,1.1-3.9c0.1-1.4-0.3-2.8-1.1-3.9C73.6,103.4,72.4,102.9,71.1,102.9z"/>
	<path class="st1" d="M88.2,103.6c-0.5-0.3-1.1-0.5-1.6-0.4c-0.9,0-1.8,0.5-2.2,1.3c-0.7,1.1-1,2.3-0.9,3.6v6.9h-2.2v-13.5h2.2v2.8
		l0,0c0.2-0.9,0.7-1.6,1.4-2.2c0.6-0.5,1.3-0.8,2.1-0.8c0.4,0,0.9,0,1.3,0.2V103.6z"/>
	<path class="st1" d="M101.3,108.7h-9.5c-0.1,1.3,0.3,2.5,1.1,3.5c0.8,0.8,2,1.3,3.2,1.2c1.5,0,3-0.5,4.2-1.5v2
		c-1.4,0.9-3,1.4-4.7,1.3c-1.7,0.1-3.3-0.6-4.5-1.8c-1.2-1.5-1.8-3.3-1.6-5.2c-0.1-1.9,0.6-3.7,1.8-5.1c1.1-1.3,2.8-2,4.5-2
		c1.6-0.1,3.1,0.5,4.1,1.7c1,1.4,1.5,3.1,1.4,4.8L101.3,108.7z M99.1,106.9c0-1-0.3-2.1-0.9-2.9c-0.6-0.7-1.5-1.1-2.5-1
		c-1,0-1.9,0.4-2.6,1.1c-0.7,0.8-1.2,1.8-1.3,2.9L99.1,106.9z"/>
</g>
</svg>
