<?xml version="1.0" encoding="utf-8"?>
<!-- Generator: Adobe Illustrator 24.2.2, SVG Export Plug-In . SVG Version: 6.00 Build 0)  -->
<svg version="1.1" id="Capa_1" xmlns="http://www.w3.org/2000/svg" xmlns:xlink="http://www.w3.org/1999/xlink" x="0px" y="0px"
	 viewBox="0 0 150 150" style="enable-background:new 0 0 150 150;" xml:space="preserve">
<style type="text/css">
	.st0{fill:#FFFFFF;}
	.st1{fill:none;stroke:#FFFFFF;stroke-width:2.5549;}
	.st2{fill-rule:evenodd;clip-rule:evenodd;fill:#FFFFFF;}
</style>
<g>
	<path class="st0" d="M73.8,53.7c5,0,9.1-4,9.1-9s-4.1-9-9.1-9c-5,0-9.1,4-9.1,9S68.8,53.7,73.8,53.7z"/>
	<path class="st1" d="M73.8,26.3c12.2,0,23.5,1.7,32.1,4.7c10.3,3.5,16.6,8.9,16.6,13.7c0,5-6.7,10.7-17.8,14.3
		c-8.4,2.8-19.4,4.2-30.9,4.2c-11.9,0-23.1-1.3-31.6-4.2c-10.7-3.6-17.1-9.4-17.1-14.3c0-4.8,6-10.1,16.2-13.6
		C49.9,28.1,61.5,26.3,73.8,26.3L73.8,26.3z"/>
	<path class="st1" d="M57.7,35.6C63.8,25.1,71,16.2,77.8,10.3c8.2-7.1,16-9.9,20.2-7.5c4.4,2.5,6,11.1,3.6,22.5
		c-1.8,8.6-6,18.8-11.8,28.7C84,64.2,77.2,73.2,70.5,79c-8.5,7.4-16.7,10.1-21,7.6c-4.2-2.4-5.8-10.2-3.8-20.7
		C47.3,57,51.6,46.2,57.7,35.6L57.7,35.6z"/>
	<path class="st1" d="M57.8,54c-6.1-10.5-10.3-21.1-12-29.9C43.7,13.5,45.1,5.4,49.3,3C53.7,0.4,62,3.4,70.7,11
		c6.6,5.8,13.3,14.5,19.1,24.5c5.9,10.2,10.4,20.5,12.1,29.3c2.2,11,0.4,19.4-3.9,21.9c-4.2,2.4-11.8-0.1-20-7.1
		C71.3,73.7,63.9,64.6,57.8,54L57.8,54z"/>
	<path class="st2" d="M31.6,147.3l-11.1-16.7c5.6-0.5,10.7-4.5,10.7-11.9c0-7.5-5.4-12.4-12.9-12.4H1.7v41h5.1V131H15l10.5,16.3
		L31.6,147.3z M17.6,126.5H6.8v-15.7h10.8c4.9,0,8.2,3.2,8.2,7.8C25.8,123.3,22.5,126.5,17.6,126.5L17.6,126.5z M50.7,148
		c4.9,0,8.9-1.6,11.9-4.5l-2.2-3c-2.4,2.4-5.8,3.7-9.2,3.7c-6.4,0-10.4-4.7-10.8-10.3h24.2v-1.2c0-8.9-5.3-15.9-14.4-15.9
		c-8.5,0-14.7,6.9-14.7,15.5C35.5,141.7,41.9,148,50.7,148L50.7,148z M60,130.6H40.4c0.2-4.5,3.4-9.9,9.8-9.9
		C57,120.7,59.9,126.1,60,130.6z M95.4,147.3v-20.4c0-7.2-5.3-10-11.6-10c-4.9,0-8.7,1.6-11.9,4.9L74,125c2.7-2.8,5.6-4.1,9.2-4.1
		c4.3,0,7.5,2.3,7.5,6.3v5.3c-2.4-2.8-5.8-4.1-9.9-4.1c-5.1,0-10.5,3.1-10.5,9.8c0,6.5,5.4,9.8,10.5,9.8c4,0,7.4-1.4,9.9-4.1v3.4
		L95.4,147.3z M82.5,144.7c-4.3,0-7.4-2.7-7.4-6.5c0-3.8,3-6.5,7.4-6.5c3.3,0,6.4,1.2,8.2,3.7v5.6C88.9,143.5,85.8,144.7,82.5,144.7
		L82.5,144.7z M117.8,148c5.4,0,8.7-2.2,10.9-5.2l-3.1-2.8c-2,2.6-4.5,3.9-7.6,3.9c-6.4,0-10.3-4.9-10.3-11.5
		c0-6.6,4-11.4,10.3-11.4c3.1,0,5.6,1.2,7.6,3.9l3.1-2.8c-2.3-3-5.5-5.2-10.9-5.2c-8.9,0-14.9,6.8-14.9,15.5
		C102.9,141.3,108.9,148,117.8,148L117.8,148z M142.8,148c2.7,0,4.4-0.8,5.6-1.9l-1.4-3.4c-0.6,0.7-1.8,1.2-3.2,1.2
		c-2,0-3-1.6-3-3.8v-18.4h6.1v-4.1h-6.1v-8.1h-4.6v8.1h-4.9v4.1h4.9v19.4C136.2,145.5,138.4,148,142.8,148L142.8,148z"/>
</g>
</svg>
