<svg width="76" height="76" viewBox="0 0 76 76" fill="none" xmlns="http://www.w3.org/2000/svg">
<rect width="76" height="76" rx="10" fill="#6BE2CD"/>
<path d="M50.4562 54.1032H48.6419V51.0788C48.6363 50.0406 48.4524 49.011 48.0984 48.035C48.0786 47.9817 48.0578 47.9323 48.0333 47.8816C47.7395 47.0805 47.3336 46.325 46.8277 45.6378L44.2879 42.2502C43.5832 41.3065 43.2014 40.1609 43.1991 38.9831V37.1511C43.2033 35.7086 43.7759 34.3259 44.7928 33.3028L45.9852 32.1104C47.3706 30.7175 48.2606 28.9084 48.5185 26.9609C48.5194 26.9356 48.533 26.9146 48.533 26.8891L48.5279 26.8642C48.591 26.4779 48.6291 26.0879 48.6419 25.6967V21.4464H50.4562C50.9374 21.4464 51.3988 21.2553 51.7391 20.915C52.0793 20.5748 52.2705 20.1133 52.2705 19.6321C52.2705 19.151 52.0793 18.6895 51.7391 18.3493C51.3988 18.009 50.9374 17.8179 50.4562 17.8179H25.0565C24.5753 17.8179 24.1138 18.009 23.7736 18.3493C23.4334 18.6895 23.2422 19.151 23.2422 19.6321C23.2422 20.1133 23.4334 20.5748 23.7736 20.915C24.1138 21.2553 24.5753 21.4464 25.0565 21.4464H26.8707V25.6967C26.8836 26.0879 26.9217 26.4779 26.9848 26.8642L26.9797 26.8892C26.9797 26.9146 26.9932 26.9357 26.9942 26.961C27.2521 28.9085 28.1421 30.7176 29.5275 32.1105L30.7199 33.3029C31.7367 34.326 32.3094 35.7086 32.3135 37.1511V38.9831C32.3112 40.1607 31.9297 41.3063 31.2257 42.2502L28.6841 45.6377C28.1784 46.3253 27.7726 47.081 27.4788 47.8823C27.4546 47.9326 27.4339 47.9814 27.4143 48.0341C27.0603 49.0105 26.8764 50.0403 26.8707 51.0788V54.1032H25.0565C24.5753 54.1032 24.1138 54.2944 23.7736 54.6346C23.4333 54.9748 23.2422 55.4363 23.2422 55.9175C23.2422 56.3987 23.4333 56.8601 23.7736 57.2004C24.1138 57.5406 24.5753 57.7317 25.0565 57.7317H50.4562C50.9374 57.7317 51.3988 57.5406 51.7391 57.2004C52.0793 56.8601 52.2705 56.3987 52.2705 55.9175C52.2705 55.4363 52.0793 54.9748 51.7391 54.6346C51.3988 54.2944 50.9374 54.1032 50.4562 54.1032ZM30.4993 25.0749V21.4464H45.0134V25.0749H30.4993ZM32.0929 29.5451C31.8373 29.2882 31.6082 29.0063 31.4092 28.7035H44.1035C43.9044 29.0063 43.6753 29.2882 43.4197 29.5451L42.2273 30.7374C40.8121 32.1443 39.9047 33.9817 39.6477 35.9605H35.8649C35.608 33.9816 34.7005 32.1442 33.2853 30.7373L32.0929 29.5451ZM34.1287 44.4259C35.1784 43.0193 35.8009 41.3401 35.9217 39.5891H39.591C39.7116 41.3403 40.3344 43.0196 41.3849 44.4259L43.1993 46.8461H32.3129L34.1287 44.4259ZM45.0134 54.1032H30.4993V51.0788C30.5043 50.8767 30.5208 50.675 30.5486 50.4747H44.964C44.9919 50.675 45.0083 50.8767 45.0134 51.0788V54.1032Z" fill="white"/>
</svg>
