<svg id="Capa_1" data-name="Capa 1" xmlns="http://www.w3.org/2000/svg" viewBox="0 0 2500 2500"><defs><style>.cls-1{fill:#fff;}</style></defs><path class="cls-1" d="M2255.86,0H244.14C109.31,0,0,109.31,0,244.14V2255.86C0,2390.69,109.31,2500,244.14,2500H2255.86c134.83,0,244.14-109.31,244.14-244.14V244.14C2500,109.31,2390.69,0,2255.86,0ZM1087.5,1926.56a117.19,117.19,0,0,1-117.19,117.19H442.19A117.19,117.19,0,0,1,325,1926.56V442.19A117.19,117.19,0,0,1,442.19,325H970.31A117.19,117.19,0,0,1,1087.5,442.19Zm1087.5-625a117.19,117.19,0,0,1-117.19,117.19H1529.69a117.19,117.19,0,0,1-117.19-117.19V442.19A117.19,117.19,0,0,1,1529.69,325h528.12A117.19,117.19,0,0,1,2175,442.19Z"/></svg>